<svg id="Ebene_1" data-name="Ebene 1" xmlns="http://www.w3.org/2000/svg" viewBox="0 0 1344.68 865.95"><defs><style>.cls-1,.cls-2{fill:#fff;}.cls-2{fill-opacity:0;stroke:#fff;stroke-opacity:0;}</style></defs><path id="b4APnxcPI9" class="cls-1" d="M350.57,693.57l1.41,0,1.44,0,1.42.06,1.42.06,1.39.11,1.4.08,1.38.12,1.35.13,1.36.14,1.31.16,1.28.17,1.27.18,1.23.19,1.2.2,1.17.23,1.11.25,1.09.24,1,.27,1,.27,1.93.61,1.91.68,1.89.72,1.87.78,1.87.82,1.83.89,1.83.92,1.79,1,1.78,1,1.75,1.09,1.73,1.13,1.7,1.17,1.69,1.22,1.64,1.25,1.62,1.31,1.6,1.36,1.57,1.38,1.54,1.44,1.5,1.45,1.48,1.52,1.43,1.55,1.4,1.58,1.38,1.62,1.33,1.64,1.3,1.69,1.25,1.72,1.23,1.75,1.18,1.79,1.15,1.81,1.11,1.83,1,1.86,1,1.89,1,1.94.92,2,.88,2,.85,2,.8,2,.74,2,.68,2.06.65,2.07.39,1.42.37,1.48.33,1.52.33,1.58.31,1.6.29,1.65.24,1.68.25,1.73.2,1.74.21,1.77.16,1.79.17,1.83.12,1.82.1,1.85.09,1.87.06,1.87.06,1.87,0,1.89v1.89l0,1.87,0,1.89-.06,1.87-.09,1.87-.12,1.83L433.9,799l-.15,1.81-.18,1.78-.19,1.77-.22,1.75-.25,1.7-.24,1.67-.29,1.64-.31,1.6-.33,1.57-.35,1.52-.37,1.45-.39,1.42-.41,1.36-.43,1.31-.45,1.26-1.13,2.89L427,828.37l-1.26,2.75-1.29,2.69-1.38,2.61L421.67,839l-1.48,2.49-1.52,2.38-1.58,2.32-1.64,2.24-1.71,2.18L412,852.65l-1.81,2-1.85,2-1.91,1.87-1.95,1.79-2,1.72-2,1.62-2.12,1.57-2.15,1.5-2.22,1.39-2.26,1.32-2.3,1.25L387,871.82l-2.4,1.09-2.45,1-2.48.92-2.55.84-2.59.76-2.63.68-2.67.6-2.71.51-2.77.45-2.8.35-2.85.27-2.88.17-2.94.1-3,0-3-.08-3.06-.15-3.55-.29-3.48-.39-3.43-.53-3.35-.64-3.28-.76-3.23-.88-3.14-1-3.06-1.11-3-1.21-2.92-1.33L308,869.79l-2.77-1.56-2.67-1.65-2.61-1.76L297.37,863l-2.44-2-2.34-2-2.28-2.16-2.18-2.26-2.1-2.36-2-2.44-1.91-2.55-1.83-2.63-1.73-2.73L277,839l-1.54-2.9-1.44-3-1.33-3.06-1.26-3.14-1.13-3.25-1-3.3-1-3.39-.82-3.46-.72-3.53-.62-3.62-.51-3.67-.39-3.76-.29-3.82-.16-3.89-.06-4,0-3.39.12-3.35.21-3.31.26-3.23.37-3.2.43-3.14.52-3.09.59-3,.68-3,.76-2.91.82-2.88.91-2.81,1-2.76,1.05-2.69,1.13-2.65,1.21-2.59,1.28-2.53,1.35-2.46,1.42-2.4,1.5-2.35,1.56-2.28,1.65-2.24,1.7-2.15,1.77-2.1,1.87-2,1.91-2,2-1.91,2.06-1.85,2.13-1.76,2.2-1.71,2.26-1.64,2.32-1.56,2.41-1.5,2.46-1.44,2.53-1.36,2.61-1.29,2.65-1.21,2.73-1.15,2.8-1.09,2.85-1,.86-.27.91-.26,1-.25,1-.23,1-.22,1.11-.19,1.13-.18,1.19-.19,1.21-.14,1.23-.14,1.3-.15,1.29-.1,1.34-.1,1.33-.09,1.38-.08,1.38,0,1.39,0,1.42,0h2.84ZM985.05,875.13l-14-.66-.45-63.4,0-2.61,0-2.59,0-2.57,0-2.54-.05-2.51,0-2.49,0-2.44,0-2.43,0-2.36,0-2.34,0-2.3,0-2.26,0-2.2,0-2.18,0-2.09,0-2.08,0-2,0-2,0-1.92V765.4l0-1.77,0-1.71,0-1.64v-1.56l0-1.5,0-1.42v-1.35l0-1.28V752l0-1.11v-2l0-.84v-2.47l0-.39v-.78l0-.31,0-.29,0-.26-.06-.25-.07-.23-.08-.18-.08-.19-.1-.16-.11-.12-.12-.13-.12-.08-.15-.08-.12,0-.14,0-.17,0h-.14l-.17,0-.16,0-.16.06-.17.08-.16.11-.19.12-.16.14-.17.17-.18.16-.17.19-.16.2-.16.23-.17.22-.16.25-.17.27-.14.28-.15.31-.14.31-.14.31-.13.35-.12.35-.12.37-.11.37,0,.24-.08.27-.08.29-.08.35-.11.35-.12.41-.12.41-.15.47-.14.47-.14.52-.19.53-.16.56-.19.59-.2.62-.21.62-.2.65-.23.68-.23.7-.24.72-.25.74-.25.74-.26.76-.27.8-.27.78-.28.82-.29.82-.29.85-.31.84-.31.86-.3.86-.31.89-.33.88-.33.91-.33.9-.33.9-.33.91-.35.9-.35.93-.32.9-.35.92-.35.93-.33.9-.33.93-.35.92-.33.91-.33.9-.33.9-.32.91-.33.88-.33.88-.31.89-.33.86-.31.86-.3.85-.31.84-.31.82-.29.8-.31.8-.26.78-.29.76-.27.76-.27.72-.26.72-.25.68-.25.68-.22.64-.23.63-.2.6-.21.57-.2.56-.19.51-.16.52-.17.47-.14.43-.15.41-.12.39-.12.35-.1.31-.09.29-.08.24-.18.56-.13.31-.12.34-.12.39-.15.42-.16.43-.17.47-.18.51-.19.52-.2.55-.21.58-.2.59-.23.64-.25.64-.22.67-.25.68-.26.72-.25.72-.27.76-.29.76-.26.78-.29.8-.29.8-.31.83-.3.84-.29.84-.31.86L939,820l-.31.88-.33.88-.3.89-.33.9-.33.91-.33.9-.33.9-.33.93-.33.92-.35.91-.65,1.85-.35.92-.33.95-.35.94-.35.95-.35,1-.35,1-.33.94-.35,1-.35,1-.35,1-.34,1-.35,1-.35.95-.35,1-.33,1-.35.92-.33,1-.33.9-.33.92-.33.89-.3.9-.31.86-.31.87-.31.84-.31.82-.28.82-.29.78-.27.78-.27.74-.26.74-.25.7-.25.68-.22.66-.23.63-.22.6-.21.58-.18.55-.19.51-.18.48-3.78,11.13-12,.66-.5,0-.47,0-.49,0-.47,0-.48,0-.47,0h-.45l-.45,0h-2.22l-.43,0h-.41l-.42,0-.39,0-.39,0-.39,0-.37,0-.37,0-.35,0-.32,0-.33,0-.33-.06-.31-.05-.29,0-.29,0-.26-.06-.25-.06-.25-.06-.22-.06-.21-.07-.18-.06-.19-.06-.16-.08-.14-.08-.13-.07-.1-.08-.1-.08-.09-.1-.08-.13-.1-.18-.12-.25-.15-.26-.16-.33-.17-.37L893,872l-.21-.45-.2-.5-.23-.51-.24-.58-.25-.59-.27-.64-.29-.66-.26-.7-.31-.74-.31-.76-.31-.8-.33-.82-.33-.86-.34-.86-.35-.93-.35-.92-.37-1-.37-1-.37-1-.39-1-.39-1-.39-1.06-.39-1.07-.41-1.09-.42-1.11-.41-1.11-.41-1.13L883.7,848l-.41-1.15-.41-1.17-.41-1.17-.43-1.17-1-3-1.07-3-1.07-3-1.09-3-1.09-3-1.1-3.07-1.09-3.08L873.37,819,872.28,816l-1.09-3.06-1.09-3-1.09-3-1.09-3-1.07-3-1-3-1-2.92-1-2.87-1-2.84-1-2.79-1-2.74-1-2.67-.93-2.63-.92-2.55-.89-2.46-.86-2.4-.84-2.35-.8-2.24-.76-2.13-.74-2.08-.72-2-.66-1.87-.64-1.75-.57-1.64-.56-1.52-.49-1.42-.47-1.27-.39-1.15-.37-1-.31-.88-.27-.74-.14-.41-.15-.39-.14-.37-.14-.37-.15-.33-.14-.33-.12-.31-.15-.31-.12-.26-.12-.27-.15-.25-.12-.22-.13-.23-.12-.21-.12-.18-.1-.16-.13-.17-.12-.14-.1-.13-.13-.1-.1-.1-.12-.08-.11-.07-.1-.06-.1,0-.12,0-.11,0h-.1l-.1,0-.11,0-.1,0-.1.07-.1.06-.11.08-.1.1-.1.1-.1.13-.11.14-.08.15-.1.16-.08.16-.09.27-.08.39-.08.49-.08.58-.09.68-.08.78-.06.88-.08,1-.06,1-.08,1.13-.07,1.23-.08,1.29-.06,1.4-.06,1.46-.06,1.54-.07,1.6-.06,1.69-.06,1.74,0,1.83-.06,1.87,0,1.95-.06,2-.05,2.05,0,2.12,0,2.15,0,2.22,0,2.26,0,2.3,0,2.37,0,2.38,0,2.45,0,2.46,0,2.51,0,2.52v2.57l0,2.59v2.61l0,2.65v67.84H814.2V697.39l21.57.66,21.37.68,7.33,21.12.31.9.33,1,.35,1,.37,1.07.39,1.11.39,1.15.41,1.21.43,1.26.45,1.29.45,1.32.5,1.37.47,1.4.49,1.46.52,1.46.53,1.52.51,1.52.56,1.56.53,1.58.56,1.6.57,1.63.58,1.64.57,1.66.58,1.69.59,1.68.58,1.69.6,1.7.59,1.73.6,1.71.61,1.72.6,1.73.6,1.7.59,1.73.6,1.7.59,1.69.6,1.7.59,1.67.6,1.66.58,1.67.57,1.62.58,1.62.55,1.6.58,1.59.55,1.6.56,1.58.55,1.56.56,1.58.55,1.55.53,1.54.54,1.54.53,1.5.52,1.5.51,1.46.51,1.45.5,1.44.49,1.4.47,1.4.47,1.35.46,1.32.45,1.29.43,1.28.43,1.23.41,1.21.39,1.15.39,1.13.37,1.09.35,1,.33,1,.33,1,.31.93.29.88.28.82.25.78.25.72.2.68.21.61.18.58.17.51.12.46.12.39.11.32.14.52.16.49.17.49.16.5.17.45.18.47.19.43.18.44.19.43.2.41.19.39.2.37.21.37.2.35.21.33.2.32.21.29.21.29.22.29.21.24.2.25.23.21.2.2.21.19.23.16.2.14.21.15.2.1.21.08.2.06.21.07.2,0h.21l.18,0,.19,0,.18-.07.19-.08.18-.1.17-.12.18-.17.13-.25.22-.57.35-.88.47-1.22.56-1.5.64-1.76.73-2,.83-2.28.9-2.5,1-2.74,1-2.91,1.09-3.13,1.17-3.28,1.22-3.44,1.25-3.59,1.29-3.7,1.34-3.82,1.38-3.93,1.37-4,1.42-4.07,1.44-4.11,1.44-4.17,1.43-4.17,1.44-4.19,1.44-4.17,1.44-4.15,1.42-4.11,1.37-4.07,1.38-4,1.34-3.9,1.29-3.82,1.25-3.7,1.19-3.57,1.18-3.41,1.08-3.29,1-3.08,1-2.92.88-2.71.82-2.49.72-2.26,4-12.22,21.59-.68,21.35-.66v178.4Zm-391.53,0-16.26-.66-20-31.82-.84-1.34-.84-1.37-.88-1.42-.91-1.46-.92-1.48-1-1.52-1-1.54-1-1.58-1-1.59-1-1.62-1-1.64-1.05-1.67-1-1.68-1-1.69-1.07-1.7-1.09-1.73-1.07-1.72-1.09-1.73-1.09-1.72-1.09-1.75L536.22,809l-1.09-1.72-1.07-1.75L533,803.75l-1.09-1.7-1.07-1.73-1-1.68L528.7,797l-1.05-1.68-1-1.64-1-1.63-1-1.6-1-1.6-1-1.54-1-1.54-.93-1.5-.92-1.46-.9-1.44-.87-1.38-.84-1.35-.82-1.32-.8-1.29-.82-1.3-.79-1.27-.8-1.25-.78-1.24-.78-1.21-.76-1.21-.76-1.17-.74-1.17-.74-1.13-.72-1.11-.7-1.09-.69-1.07-.68-1-.68-1-.64-1-.63-1-.62-.9-.6-.9-.57-.85-.56-.82-.55-.8-.51-.74L500,752l-.47-.68-.45-.61-.43-.6-.39-.55-.39-.52-.35-.47-.33-.41-.29-.39-.27-.33-.24-.29-.21-.22-.18-.19-.15-.12-.1-.08-.1,0-.06,0-.07.16-.06.27-.08.35-.06.47-.08.56-.07.65-.06.74-.08.84-.06.93-.08,1-.06,1.09-.07,1.19-.08,1.25-.06,1.36-.06,1.41-.06,1.48-.09,1.56-.06,1.65-.06,1.7-.06,1.77-.06,1.83-.06,1.89,0,2-.07,2-.06,2.08,0,2.12-.06,2.15,0,2.22,0,2.28-.06,2.3-.05,2.37,0,2.4,0,2.42,0,2.47,0,2.51,0,2.54,0,2.57,0,2.59,0,2.63-.66,64.08H466l-.66-88.55-.45-88.32h17.79l1,0h1.95l.93,0h.86l.82,0,.78,0,.76,0,.7,0,.68,0,.64,0,.59,0,.58.06.53.07.52.06.49.06.45.08.43.1.39.09.39.1.35.12.35.13.31.12.31.14.29.15.26.16.25.19.25.18.22.19.21.2.22.23.19.22.2.25.19.25.18.26.19.29.18.31.19.31.18.33.23.45.35.62.45.8.56.94.63,1.11.74,1.25.84,1.4.93,1.54,1,1.69,1.11,1.83,1.17,1.93,1.25,2.07,1.33,2.18,1.4,2.3,1.46,2.4,1.54,2.51,1.6,2.59,1.65,2.71,1.72,2.78,1.77,2.87,1.81,3,1.87,3,1.91,3.08,1.95,3.17,2,3.22,2,3.27,2.05,3.33,2.1,3.37,2.11,3.41,2.16,3.45,2.16,3.47,2.18,3.51,2.19,3.54,2.22,3.53,2.22,3.56,2.22,3.57,2.24,3.56,2.22,3.57,2.24,3.55,2.22,3.54.59.94.6.91.6.92.57.89.58.88.55.88.58.87.53.84.56.82.53.82.51.78.52.78.49.76.49.76.5.72.45.7.47.68.43.66.43.63.41.62.42.58.39.57.37.53.34.52.35.49.31.45.31.43.29.4.29.37.24.32.23.31.22.27.19.25.18.2.17.17.12.14.13.1.08.06.06,0,0,0,.06-.08,0-.18.06-.31,0-.39,0-.52,0-.59.06-.68,0-.8,0-.86,0-1,0-1.07,0-1.13,0-1.23,0-1.29,0-1.38,0-1.46,0-1.52,0-1.6,0-1.69,0-1.72,0-1.81,0-1.87.05-1.93,0-2,0-2.05,0-2.1,0-2.15,0-2.2,0-2.24,0-2.3,0-2.34,0-2.39,0-2.42,0-2.47,0-2.5,0-2.53,0-2.55,0-2.59,0-2.63,0-2.63.45-64.28,14-.68,13.78-.66v178.4ZM-201.35,721-257,723.2l-2.21,151.27-13.81.66-14,.66V786.27l0-4.29v-4.09l0-3.88v-3.72l0-3.52,0-3.35,0-3.16,0-3,0-2.81,0-2.68,0-2.52-.06-2.37,0-2.19-.06-2.08-.07-1.93-.06-1.81-.08-1.66-.06-1.56-.08-1.42-.11-1.32-.1-1.21-.1-1.11-.1-1-.13-.91-.12-.8-.12-.74-.15-.66-.14-.57-.17-.5-.16-.43-.16-.37-.19-.33-.18-.26-.21-.21-.21-.16-.22-.15-.23-.1-.16,0-.23,0-.24-.06-.29,0-.31-.07-.37,0-.39,0L-293,723l-.47,0-.5,0-.53-.06-.56,0-.59,0-.62,0-.64,0-.67,0-.7-.06-.72,0-.76,0-.78,0-.78,0-.82,0-.85,0-.86,0-.86,0-.91,0-.9,0-.93,0-.94,0-1,0-1,0-1,0-1,0h-1l-1,0-1,0h-3.13l-1.05,0h-25.35V697.6H-200l-.68,11.56Zm850.91-23.34h3.25l1,0,.92,0,.88,0,.83,0,.78,0,.72,0,.69,0,.66.06.62.06.57.07.54.06.51.08.47.1.46.11.41.1.39.12.37.13.35.16.3.14.31.19.29.16.27.21.26.2.25.23.23.25.22.26.23.27.2.29.23.31.21.32.2.35.23.37.2.39.23.39.23.44.94,1.82,1,1.92,1.07,2,1.13,2,1.17,2.12,1.21,2.16,1.25,2.21,1.3,2.26,1.31,2.31,1.36,2.32,1.35,2.34,1.4,2.34,1.42,2.39,1.42,2.36,1.41,2.36,1.44,2.34,1.42,2.34,1.44,2.33,1.41,2.28,1.4,2.24,1.38,2.19,1.35,2.16,1.34,2.1,1.31,2,1.28,2,1.23,1.87,1.19,1.81,1.15,1.71,1.09,1.62,1,1.5,1,1.4.92,1.29.86,1.15.78,1,.7.88.62.76.55.62.46.45.35.29.26.1.17,0,.14,0,.14,0,.15,0,.14,0,.15,0h.65l.13,0,.12,0,.1,0,.13,0,.12,0,.1,0,.1,0,.11,0,.1,0,.08,0,.1,0,.09-.06.08,0,.08-.06.06-.06.09-.06.06-.06.06-.08,0-.07.06-.08,0-.06,0-.08,0-.08,0-.11,0-.08,0-.08,0-.1,0-.11v-.2l0-.15,0-.14,0-.14,0-.19,0-.16.06-.19.06-.2.09-.21.06-.2.1-.23.08-.23.11-.24.1-.25.12-.27.12-.24.13-.27.12-.29.15-.29.14-.28.14-.29.17-.31.14-.31.17-.31.16-.3.18-.33.19-.31.16-.33.19-.33.2-.35.19-.33.18-.35.21-.32.21-.35.2-.35.21-.35.2-.35.23-.35.2-.35.23-.35.2-.33.23-.37.25-.35.24-.37.25-.39.25-.39.24-.41.27-.41.27-.41.26-.43.29-.43.27-.45.29-.44.28-.45.29-.47.29-.45.29-.48.28-.45.29-.47.29-.47.31-.47.29-.48.28-.47.29-.47.29-.48.29-.47.28-.47.29-.45.27-.47.27-.46.28-.45.27-.45.25-.43.26-.45.25-.44.25-.41.24-.41.23-.41.25-.41.2-.37.23-.39.24-.41L733,744l.29-.47.29-.5.28-.51.33-.56.31-.55.35-.6.35-.59.37-.64.37-.64.37-.67.41-.68.39-.7.41-.72.41-.72.43-.74.43-.76.46-.78.43-.76.45-.8.45-.78.47-.8.46-.82.47-.81.94-1.64.48-.82.47-.84.47-.83.47-.82.48-.82.47-.82.47-.82.45-.82.48-.81.45-.8.47-.8.45-.8,11.12-19.35h16.89l.63,0h1.89l.62,0h.62l.59,0h.58l.57,0,.58,0,.55,0,.56,0h.53l.52,0,.49,0,.49,0,.5,0,.45,0,.45,0,.43,0,.41,0,.39.05.37,0,.37,0,.33,0,.33,0,.31,0,.26,0,.27,0,.23,0,.22,0,.19,0,.16,0,.15.05.12,0,.08,0,.06,0,0,0,0,0v.06l-.05.1-.06.15-.08.18-.12.23-.13.25-.14.28-.19.33-.18.35-.23.39-.22.43-.27.46-.27.47-.3.51-.31.54-.33.55-.35.6-.37.61-.37.66-.39.66-.41.7-.43.69-.45.74-.46.76-.47.79-.47.8-.5.82-.51.84-.51.84-.54.89-.53.88-.56.9-.55.91-.58.94-.57.93-.6,1-.59,1-.6,1-.59,1-.62,1-.62,1-.59,1-.62,1-.62,1-.59,1-.62,1-1.23,2-.62,1-.59,1-.62,1-.59,1-.6,1-.6,1-.59,1-.58,1-.57.94-.58.93-.55.92-.56.91-.53.88-.54.86-.53.87-.49.84-.5.8-.49.8-.47.78-.45.74-.44.74-.43.7-.41.68-.39.63-.37.62-.35.6-.35.55-.3.51-.29.5-.27.45-.27.43-.22.39-.23.37-.24.41-.25.43-.29.46-.29.47-.3.51-.31.52-.33.55-.35.56-.37.57-.37.6-.37.61-.39.64-.41.66-.41.65-.43.68-.44.68-.43.7-.45.72-.45.72-.47.74-.48.74-.47.74-.47.76-.47.74-.5.78-.49.76-.49.76-.5.78-.49.78-.51.76-.5.78-.49.76-.51.78-.5.76-.49.76-.49.76-.5.76-.49.74-.49.74L728.54,801l-2.22,73.43-14.91.66-15.12.66V804.62l-15.58-24.7-.66-1-.63-1-.68-1-.66-1-.66-1-.65-1.05-.66-1-.68-1-.66-1-.65-1-.66-1-.66-1-.64-1-.63-1-.64-1-.64-1-.61-1-.62-1-.62-1-.59-1-.58-.94-.57-.93-.58-.92-.55-.88-.54-.89-.53-.86-.51-.82-.5-.82-.47-.79-.47-.76-.45-.74-.44-.71-.41-.68-.39-.66-.37-.62-.35-.59-.32-.56-.31-.51-.29-.49-.27-.46-.18-.3-.21-.35-.2-.35-.23-.37-.22-.39-.27-.43-.25-.44-.29-.47-.28-.47-.31-.51-.31-.52-.35-.55-.33-.56-.37-.59-.37-.62-.39-.64-.39-.63-.41-.68-.43-.7-.43-.72-.45-.74-.48-.76-.47-.78-.49-.8-.5-.82-.53-.87-.53-.86-.54-.88-.55-.91-.58-.94-.59-1-.6-1-.6-1-.63-1-.64-1-.66-1.07-.65-1.09-.68-1.09-.7-1.13-.7-1.15L629.55,697.6h18.82ZM-2,697.62h.74l.74,0,.7,0H.84l.66,0,.61,0,.6,0,.6,0,.53,0,.53,0,.52.06.49.05.47.06.43.06.44.06.41.08.39.06.35.09.37.08.32.1.31.1.29.11.29.1.27.1.24.13.23.12.22.12.21.15.18.14.19.14.16.15.17.16.12.17.15.16.12.19.1.18.1.19.09.2,0,.21.06.33,0,.45.06.55,0,.68,0,.78.07.88,0,1,0,1.11.06,1.19,0,1.3,0,1.37,0,1.48.06,1.56.05,1.67,0,1.72,0,1.83,0,1.89,0,2,0,2.06,0,2.12,0,2.19,0,2.26,0,2.33,0,2.38,0,2.44,0,2.49,0,2.55,0,2.61,0,2.65,0,2.71,0,2.75,0,2.78,0,2.83v2.86l0,2.89V769l0,3v79.18h91.2v24.47H-17.82v-178h15ZM-50.07,721l-46.5.67-2.22,0-2.15,0-2.14,0-2.07,0-2,0-2,0-1.93,0-1.89,0-1.85,0-1.79.06-1.75,0-1.68.07-1.64,0-1.61.06-1.54.06-1.5.06-1.44.06-1.39.09-1.34.06-1.29.08-1.23.08-1.2.06-1.13.09-1.09.08-1,.1-1,.08-.9.08-.87.11-.82.08-.74.1-.7.11-.65.1-.58.1-.53.1-.47.11-.42.1-.34.12-.29.1-.25.13-.18.12-.27.31-.27.43-.24.58-.25.67-.23.79-.2.88-.19,1-.18,1.05-.17,1.15-.16,1.22-.14,1.29-.13,1.36-.12,1.39-.08,1.44-.11,1.5-.06,1.52-.06,1.54,0,1.58,0,1.59,0,1.58v3.18l0,1.58,0,1.55,0,1.54.08,1.5.09,1.45.1,1.4.1,1.38.15,1.29.14,1.24.14,1.17.19,1.09.18,1,.19.91.22.82.23.7.25.59.26.47.27.35.19.15.2.14.27.15.29.12.34.12.39.13.44.12.47.12.53.1.58.11.61.1.66.1.72.08.78.11.8.08.89.08.9.06,1,.09,1,.06,1.09.06,1.11.06,1.19.06,1.24.06,1.29,0,1.36,0,1.39.06,1.46,0,1.52,0,1.58,0,1.63,0,1.7,0,1.75,0,1.81,0,1.89,0h1.93l2,0h2.06l2.13,0h47.38V795.5h-54.81l-2.37,0h-2.24l-2.13,0-2.06,0-1.93,0-1.85,0-1.74,0-1.65,0-1.58,0-1.48,0-1.38,0-1.31.06-1.23.07-1.15.06-1.09.06-1,.06-.92.08-.89.09-.8.1-.74.08-.68.1-.63.13-.58.12-.51.12-.47.13-.44.14-.37.14-.35.17-.28.16-.27.17-.23.18-.2.19-.17.2-.12.21-.12.22-.11.23-.14.45-.12.58-.13.7-.12.8-.12.92-.1,1-.09,1.11-.08,1.19-.08,1.27-.06,1.36-.06,1.4-.05,1.48,0,1.52,0,1.56,0,1.6,0,1.64,0,1.67V821l0,1.69v1.68l0,1.69,0,1.68,0,1.65,0,1.64.07,1.6,0,1.56.08,1.52.06,1.46.08,1.42.09,1.34.08,1.27.1,1.19.1,1.09.13,1,.1.92.12.8.13.68.14.58.14.43.15.31.12.14.16.14.23.15.27.12.31.14.37.13.41.12.47.12.53.13.58.1.64.12.67.11.76.1.8.1.87.08.9.11,1,.08,1.05.08,1.11.1,1.17.06,1.23.09,1.29.08,1.36.06,1.44.08,1.5.06,1.56.07,1.64.06,1.71.06,1.79.06,1.84,0,1.94.06,2,.05,2.07.06,2.16,0,2.24,0,2.3,0,2.38,0,2.47,0,2.55,0,2.63,0,48.94.68.67,11.79.66,11.57-65.17-.45-65.19-.66-.66-88.55L-178,697.6H-48.74l-.67,11.56ZM159,850l45.16.68,44.93.45v24.47H129v-178h28.93l.45,76.1ZM348.22,716.87l-.8,0-.78,0-.8.06-.8.06-.8.09-.82.1-.83.1-.82.12-.84.15-.84.14-.87.15-.88.18-1.38.31-1.35.33-1.32.37-1.31.41-1.28.43-1.27.45-1.23.49-1.21.54-1.2.53-1.19.6-1.15.61-1.13.64-1.11.68-1.11.72-1.06.74-1.07.76-1,.82-1,.84-1,.87-1,.9-1,.94-1,1-.95,1-.92,1.05-.91,1.08-.88,1.11-.88,1.15-.87,1.2-.84,1.21-.84,1.27-.82,1.3-.82,1.33-.81,1.38-.78,1.4-.78,1.45-.76,1.48-.76,1.52-.74,1.57-.28.67-.29.68-.27.66-.27.66-.24.65-.25.66-.23.64-.22.66-.21.65-.2.66-.19.66-.18.68-.17.67-.16.7-.17.7-.14.72L296,764l-.13.74-.12.78-.12.78-.11.8-.1.82-.08.85-.08.88-.08.9-.07.93-.08,1,0,1-.06,1,0,1,0,1.1,0,1.13,0,1.18,0,1.23,0,1.25,0,1.32v4.8l0,2,.05,2,.08,1.93.08,1.89.1,1.85.15,1.81.14,1.77.19,1.72.2,1.71.21,1.64.24,1.62.27,1.61.29,1.54.31,1.52.34,1.5.35,1.44.39,1.43.42,1.4.43,1.38.45,1.33L300,822l.52,1.29.53,1.26.55,1.25.6,1.21.62,1.19.63,1.19.68,1.16.7,1.15.72,1.11.76,1.1.8,1.09.8,1.07.84,1.07.89,1,.9,1,.93,1,.8.87.82.84.82.8.82.78.83.76.84.72.84.7.84.68.84.63.89.62.86.59.88.58.91.53.9.52.93.49.92.47.95.46,1,.41,1,.41,1,.37,1,.35,1,.33,1,.3,1.06.29,1.09.27,1.09.22,1.13.23,1.13.21,1.17.18L340,855l1.2.13,1.25.12,1.25.1,1.28.09,1.31.06,1.34,0,1.35,0h1.4l1.83,0,1.79-.06,1.74-.1,1.73-.15,1.68-.2,1.65-.23,1.62-.27,1.58-.33,1.54-.37,1.52-.41,1.48-.45,1.46-.51,1.44-.54,1.4-.59,1.35-.66,1.34-.68,1.31-.74,1.28-.78,1.27-.84,1.21-.86,1.21-1,1.18-1,1.17-1,1.13-1.09,1.09-1.13,1.08-1.17,1.07-1.23,1-1.28,1-1.33,1-1.4,1-1.44.95-1.48.94-1.56.92-1.58.91-1.67.88-1.7L398,824l.84-1.81.53-1.21.52-1.33.47-1.42.43-1.52.41-1.6.39-1.71.37-1.77.33-1.85.31-1.91.26-2,.25-2,.21-2.08.18-2.09.17-2.16.14-2.18.1-2.2L404,791l.07-2.24v-4.48L404,782l-.06-2.24-.1-2.2-.12-2.18-.15-2.13-.18-2.12-.21-2.08-.22-2-.27-2-.29-1.91-.31-1.85-.35-1.77-.37-1.7-.41-1.61-.43-1.52-.45-1.41-.49-1.34-.52-1.21-.53-1.13-.56-1.13-.55-1.09-.6-1.09-.59-1.09-.62-1-.61-1-.64-1-.66-1-.66-1-.67-1-.7-.95-.7-.94-.72-.9-.72-.91-.74-.88-.74-.84-.76-.85-.76-.82-.78-.78-.78-.78-.78-.74-.8-.72-.8-.72-.83-.68L381,727l-.82-.64-.84-.6-.82-.59-.85-.54-.84-.53-.84-.49-.84-.48-.87-.45-.86-.41-.84-.39-.86-.37-.87-.33-1-.35-1-.35-1-.32-1-.31-1-.31-.94-.27-.93-.27-.92-.24-.89-.23-.88-.22-.88-.21-.87-.18-.84-.17-.84-.16-.82-.13-.83-.12-.82-.12-.8-.11-.8-.08L353,717l-.78,0-.8,0-.78,0H349ZM572.81,51.6l.2,6,.21,6.58.2,7.13.19,7.64.18,8.12.17,8.54.16,9,.17,9.33.16,9.63.14,10,.13,10.17.12,10.39L575,164.6l.13,10.73.1,10.81.08,10.89.08,10.9.09,10.89.06,10.85,0,10.79,0,10.64,0,10.48,0,10.29,0,10.05v9.78l0,9.49,0,9.12,0,8.76,0,8.32-.06,7.87-.06,7.35-.09,6.84-.1,6.27-.1,5.67-.13,5-.14,4.34-.14,3.59-.17,2.86-.16,2.07-.12.91-.13,1-.12,1-.15,1.05-.12,1.11-.14,1.13-.15,1.19-.14,1.21-.14,1.25-.15,1.3-.14,1.31-.17,1.38-.14,1.38-.16,1.41-.15,1.44-.16,1.46-.17,1.48-.16,1.52-.17,1.52-.16,1.54-.16,1.54-.15,1.59-.16,1.56-.17,1.6-.16,1.58-.17,1.6-.16,1.61-.16,1.6-.17,1.6-.14,1.6-.17,1.61-.14,1.6-.16,1.58-.15,1.56-.14,1.58-.17,1.55-.14,1.54-.14,1.52-.13,1.5-.14,1.48-.15,1.48-.16,1.47-.14,1.5-.17,1.5-.14,1.52-.17,1.53-.16,1.52-.14,1.52L567,449.8l-.16,1.52-.15,1.52-.16,1.52-.17,1.52-.14,1.5-.16,1.48-.17,1.5-.14,1.46-.17,1.45-.14,1.44-.14,1.42-.17,1.4L565,468.9l-.15,1.36-.14,1.34-.14,1.29-.15,1.27-.12,1.26-.14,1.21L564,477.8l-.12,1.15-.12,1.09-.13,1.07-.12,1-.1,1-.11.95-.1.88-.1.86-.1.78-.09.76-.1.7-.08.66-.1.68-.11.7-.08.7-.1.69-.08.7-.11.72-.08.7-.08.72-.08.72-.09.72-.08.72-.06.72-.08.71-.06.7-.09.72-.06.7-.06.7-.06.7-.06.68-.06.69,0,.66-.07.68,0,.64-.06.65,0,.62,0,.62,0,.61,0,.58,0,.57,0,.58-.05.53,0,.54,0,.49,0,.49,0,.48v.86l0,.41v1.58l0,.58v.53l0,.54,0,.49,0,.47,0,.45-.06.46-.09.43-.08.41-.08.39-.12.39-.13.37-.16.37-.17.35-.18.35-.21.35-.22.34-.25.33-.29.35-.28.33-.33.35-.35.33-.39.35-.41.35-.43.37-.48.35-.49.39-.56.39-.55.39-.62.41-.63.43-.68.45-.72.45-.76.5-.8.49-.84.51-.89.56-.92.57-.56.33-.55.33-.54.35-.51.33-.53.33-.52.33-.51.33-.49.3-.5.33-.49.33-.47.31-.45.31-.46.31-.45.3-.43.29-.43.31-.39.29-.41.27-.37.28-.37.27-.37.27-.33.24-.33.25-.31.25-.31.24-.26.23-.27.2-.25.21-.24.21-.21.18-.18.19-.19.16-.14.16-.15.15-.12.12-.1.12-.06.13-.07.1,0,.08v.06l0,.09.05.12.1.16.12.19.17.23.18.24.23.29.24.31.29.35.33.37.35.41.37.41.41.47.43.47.45.52.5.53.51.56.53.57.56.6.59.63.6.64.64.66.63.7.68.7.7.71.72.74.72.76.76.76.76.79.78.8.8.8.82.84.82.82.85.86.86.85.86.86.89.88.88.89.9.9.93.88,1.33,1.34,1.32,1.36,1.33,1.37,1.32,1.36,1.29,1.4,1.32,1.37,1.29,1.42,1.28,1.4,1.27,1.41,1.27,1.44,1.28,1.42,1.25,1.44,1.23,1.46,1.24,1.44,1.23,1.45,1.21,1.46,1.19,1.48,1.19,1.46,1.18,1.48,1.17,1.46,1.15,1.48,1.15,1.48,1.13,1.5,1.11,1.48,1.09,1.48,1.09,1.48,1.06,1.47,1.07,1.48,1,1.5,1,1.48,1,1.46,1,1.48,1,1.48.94,1.46.95,1.48.92,1.46.9,1.46.89,1.43.86,1.44.84,1.44.09.19.06.22,0,.25,0,.29-.07.3-.08.33-.14.37-.14.37-.21.39-.21.43-.24.44-.27.45-.31.45-.31.47-.32.47-.35.48-.37.49-.39.49-.39.48-.42.49-.43.49-.41.47-.43.46-.45.47-.43.43-.43.43-.46.41-.43.41-.43.37-.43.35-.41.33-.41.31-.41.27-.39.24-.37.23-.35.16-.35.15-.33.1-.29.08-.29,0-.06,0-.08,0-.08-.06-.13-.1-.12-.11-.14-.14-.17-.16-.16-.19-.21-.2-.18-.23-.23-.27-.22-.26-.25-.29-.27-.33-.26-.33-.29-.35-.29-.37-.31-.39-.31-.41-.32-.43-.33-.43-.35-.48-.35-.47-.37-.47-.37-.51-.37-.52-.37-.53-.39-.56-.41-.55-.39-.56-.41-.59-.41-.6-.42-.59-.43-.62-.41-.62-.43-.63-.43-.64-.43-.66-.43-.66-.44-.65-1.89-2.71-2-2.72-2-2.71-2-2.69-2.1-2.67-2.16-2.67-2.18-2.65-2.21-2.63-2.28-2.63-2.31-2.59-2.32-2.57-2.36-2.55-2.4-2.5-2.43-2.51-2.44-2.44-2.47-2.43-2.51-2.38-2.5-2.37-2.53-2.32-2.55-2.26-2.54-2.24-2.57-2.17L524,561.75l-2.59-2.1-2.57-2-2.59-2-2.56-2-2.59-1.86L508.48,550l-2.57-1.75-2.55-1.7-2.54-1.65-2.53-1.56-2.51-1.5-2.51-1.44L490.81,539l-2.45-1.28-2.42-1.21-2.4-1.15-2.37-1-18-7.79L442.47,541l-.87.57-.84.58-.84.57-.82.56-.83.55-.82.56-.8.53-.8.54-.8.53-.76.51-.78.5-.76.49L432,548l-.72.48-.72.45-.7.45-.68.43-.65.43-.66.41-.64.39-.61.39-.58.37-.58.35-.55.33-.53.31-.5.31-.49.29-.45.26-.45.25-.42.23-.37.2-.36.19-.33.16-.29.14-.29.13-.25.1-.2.08-.19.06-.14.05-.12,0-.09,0-.14-.05-.16,0-.19-.08-.22-.1-.25-.1-.29-.15-.31-.16-.33-.17-.34-.2-.39-.21-.42-.22-.43-.25-.45-.27-.49-.28-.5-.29-.51-.31-.55-.33-.56-.35-.57-.35-.6-.37-.62-.39-.63-.39-.64-.41-.66-.41-.68-.45-.69-.43-.7-.46-.72-.47-.72-.47-.74-.47-.74-.5-.76-.51-.76-.49-.78-.54-.78-.51-.78-.54-.78-.53-.8-.53-.81-.56-.8-.55-.78-.54-.8-.53-.78-.54-.78-.53-.76-.51-.76-.5-.74-.51-.74-.49-.74-.48-.72-.47-.7-.47-.7-.45-.67-.45-.68-.44-.66-.41-.64-.41-.61-.39-.62-.39-.57-.37-.58-.35-.55-.35-.54-.33-.51-.3-.5-.29-.47-.29-.43-.27-.43-.24-.41-.23-.37-.2-.35-.21-.33-.16-.31-.17-.26-.14-.27-.11-.21-.1-.18-.08-.17-.06-.14,0-.08,0-.11,0-.14,0-.14.06-.21.08-.2.1-.25.11-.29.14-.29.17-.32.16-.37.21-.37.2-.41.23-.42.24-.45.27-.47.29-.49.29-.52.3-.53.33-.56.35-.57.35-.58.37-.61.39-.62.39-.64.41-.65.41-.66.44-.7.45-.68.45-.72.47-.72.47-.71.48-.74.49-.76.51-.76.5-.77.51-.78.53-.78.54-.78.53-.8.54-.8.55-.8.56-.78.53-.8.53-.78.54-.78.51-.79.54-.76.49-.76.51-.74.5-.74.47-.71.47-.72.47-.7.46-.7.43-.68.45-.66.41-.65.41-.64.39-.62.39-.59.37-.58.35-.57.35-.54.33-.53.31-.51.29-.48.28-.47.27-.43.25-.43.22-.39.21-.37.2-.35.17-.31.16-.29.15-.27.1-.24.1-.21.08-.16,0-.15.05-.12,0-.12,0-.15-.05-.16,0-.21-.08-.24-.1-.27-.1-.29-.15-.31-.16-.34-.17-.37-.2-.39-.21-.44-.22-.43-.25-.47-.27-.47-.28-.52-.29-.53-.31-.53-.33-.58-.35-.58-.35-.59-.37-.62-.39-.63-.39-.66-.41-.66-.41-.68-.45-.7-.43-.69-.46-.72-.47-.72-.47-.74-.47-.74-.5-.76-.51-.76-.49-.78-.54-.78-.51-.78-.54-.81-.53-.78-.53-.8-.56-.8-.55-.8-.54-.78-.53-.78-.54-.78-.53-.76-.51-.76-.5-.76-.51-.74-.49-.72-.48-.72-.47-.72-.47-.68-.45-.7-.45-.65-.44-.66-.41-.64-.41-.61-.39-.62-.39-.58-.37-.57-.35-.56-.35-.53-.33-.51-.3-.5-.29-.47-.29-.45-.27-.41-.24-.41-.23-.37-.2-.37-.21-.33-.16-.29-.17-.29-.14-.24-.11-.21-.1-.2-.08-.15-.06-.14,0-.1,0-.09,0-.14,0-.17.06-.18.08-.21.1-.26.11-.27.14-.31.17-.33.16-.35.21-.37.2-.41.23-.41.24-.45.27-.47.29-.5.29-.51.3-.53.33-.56.35-.57.35-.58.37-.61.39-.62.39-.64.41-.66.41-.67.44-.68.45-.7.45-.7.47-.72.47-.74.48-.74.49-.74.51-.76.5-.76.51-.78.53-.78.54-.8.53-.78.54-.8.55-.8.56-.8.53-.78.53-.79.54-.78.51-.78.54-.76.49-.76.51-.74.5-.74.47-.72.47-.71.47-.7.46-.7.43-.68.45-.66.41-.65.41-.64.39-.62.39-.59.37-.6.35-.55.35-.56.33-.51.31-.52.29-.49.28-.45.27-.45.25L250,554l-.4.21-.36.2-.35.17-.31.16-.29.15-.27.1-.24.1-.21.08-.16,0-.17.05-.1,0-.21,0-.3-.09-.37-.16-.46-.21-.53-.26-.6-.31-.67-.37-.72-.41-.78-.45-.85-.5-.88-.53-.92-.56-1-.61-1-.62-1-.66-1.07-.7-1.11-.69-1.13-.74-1.13-.74-1.17-.76-1.17-.78-1.18-.78-1.17-.79-1.17-.8-1.17-.8-1.17-.78-1.15-.8-1.13-.78-1.11-.78-1.09-.78-1.05-.76-1-.74-1-.72-.95-.7-.9-.68-.84-.66-.8-.61-.74-.6-.68-.55-.62-.52-.39-.32-.37-.31-.39-.27-.39-.27-.39-.24-.39-.23-.39-.18-.41-.19-.41-.16-.43-.13-.43-.12-.46-.08-.45-.06-.49-.07-.49,0h-.52l-.55,0-.56.05-.57.08L202,529l-.64.12-.65.15-.7.16-.72.19-.76.2-.78.25-.82.27-.87.28-.88.31-1,.33-1,.37-1,.39-1.07.41-1.11.45-1.15.48-1.19.49-1.25.51-1.32.56-1.35.57-1.4.6-2,.9-2,.93-2,1-2,1-2,1.05-2,1.11-2,1.13-2,1.17-2,1.21-2,1.27-2,1.3-2,1.33-2,1.4-2,1.42-2,1.46-2,1.52-2,1.54-2,1.6-2,1.62-2,1.69-2,1.72-2,1.75-2,1.81-2,1.85-2,1.89-2,1.93-2,2-2,2-2,2.06-2,2.09-2,2.16-2,2.18-2,2.24-2,2.26-2,2.32-2.06,2.36-2,2.39-2.06,2.44-2,2.51-2.06,2.53-.59.74-.58.74-.59.73-.58.74-.57.74-.58.74-.59.76-.56.74-.57.74-.58.74-.55.74-.56.72-.55.74-.54.72-.53.7-.54.72-.51.7-.51.67-.5.68-.49.68-.47.66-.47.63-.46.64-.45.62-.41.61-.43.58-.39.57-.39.56-.37.55-.35.52-.35.49-.31.49L85,626l-.28.45-.27.41-.25.41-.22.37-.21.35-.18.31-.15.31-3.57,6.88-6.45-4-.27-.16-.27-.15-.24-.16-.27-.16-.27-.17-.27-.16-.24-.17-.25-.16-.27-.19-.24-.16-.25-.17-.23-.18-.24-.16-.25-.19-.22-.18-.23-.17-.23-.18-.2-.17-.21-.18-.22-.19-.19-.16-.2-.19-.19-.16-.18-.17-.19-.18-.16-.17-.17-.16-.16-.16-.15-.15-.14-.16-.14-.17-.13-.14L66.4,626l-.1-.15-.1-.14-.09-.15-.08-.12-.08-.14-.06-.13-.06-.1-.13-.59v-.72l.15-.87.26-1,.39-1.11.52-1.21.63-1.34.74-1.44.85-1.52.94-1.62,1-1.71,1.13-1.76,1.21-1.85,1.29-1.93,1.38-2,1.44-2,1.52-2.08,1.58-2.11,1.63-2.18,1.68-2.18,1.73-2.22,1.78-2.22,1.81-2.26L91.24,585l1.89-2.26L95,580.45,97,578.21l2-2.2,2-2.2,2-2.16,2-2.13,1.95-2.08,2-2,1.93-2,1.94-1.91,1.89-1.85,1.87-1.78,1.82-1.71,1.79-1.62,1.77-1.54.47-.41.49-.41.48-.42.45-.41.47-.41.45-.39.45-.41.44-.39.43-.39.43-.39.41-.37.41-.37.41-.37.39-.37.37-.35.39-.35.35-.35.35-.33.35-.32.33-.31.31-.31.31-.31.28-.29.27-.28.27-.27.24-.27.25-.25.21-.22.2-.23.19-.22.18-.19.14-.2.15-.17.12-.16.1-.15.09-.14.08-.12,0-.11,0-.08,0-.08,0-.06,0-.1-.06-.11-.06-.1-.11-.12-.12-.15-.12-.14-.15-.17-.18-.18-.19-.19-.2-.2-.23-.21-.22-.2-.27-.23-.27-.24-.29-.25-.3-.25-.31-.26L130,538l-.35-.29-.35-.29-.37-.28-.39-.31-.41-.31-.41-.31-.43-.33-.43-.33-.44-.32-.47-.33-.45-.35-.49-.33-.48-.35-.51-.37-.49-.35-.52-.35-.51-.37-.53-.35-.54-.37-.53-.37-.56-.37-12.9-8.89-2.67-28.48-.23-2.61-.24-2.59-.23-2.55-.23-2.52-.22-2.49-.25-2.46-.22-2.45-.23-2.4-.23-2.39-.22-2.34-.23-2.34-.24-2.3-.23-2.28-.23-2.26-.22-2.24-.23-2.22-.25-2.2-.22-2.18-.23-2.15-.24-2.16-.23-2.14-.23-2.11-.24-2.1-.25-2.1L99,436l-.25-2.08-.23-2.05-.24-2.06-.25-2-.25-2-.24-2-.25-2-.25-2-.26-2-.25-2-.27-2-.24-2-.27-2-.27-2-.27-2L95,404.31,94.88,403l-.17-1.5-.14-1.62-.12-1.79-.15-1.95L94.18,394l-.13-2.26-.1-2.43-.1-2.61-.1-2.77-.11-3-.1-3.12-.08-3.33L93.38,371l-.06-3.7-.09-3.91-.06-4.09L93.11,355l-.06-4.52,0-4.73L93,340.82l0-5.15,0-5.39,0-5.63,0-5.83,0-6.1,0-6.33,0-6.56,0-6.82V286l0-7.32V238.05l0-8.93,0-9.21V210.4l0-4.79,0-4.78V196l0-4.79,0-4.76,0-4.75,0-4.75,0-4.74,0-4.73,0-4.72,0-4.73,0-4.7,0-4.71,0-4.68,0-4.69,0-4.66,0-4.67,0-4.64.07-4.66,0-4.63.06-4.64,0-4.6.06-4.62.06-4.61,0-4.58.07-4.6.06-4.56.08-4.58.06-4.56L94,70.14,94,65.6l.07-4.55.08-4.52L94.24,52l.08-4.49L94.4,43l.09-4.5L94.57,34l.08-4.48.1-4.46,1.34-10.46H571l1.56,31.6ZM138.66,41.35h-.51l-.52,0h-.49l-.49,0-.5,0-.49,0-.47,0-.48,0-.47,0-.45,0-.45,0-.43,0-.43,0-.44,0-.41,0-.41.06-.39,0-.37,0-.37.06-.37,0-.35.06-.33.06-.3.06-.31,0-.29.07-.27.06-.26.06-.25.06-.23.06-.2.06-.21.07-.16.08-.17.06-.14.06-.12.06L126,43l-.08.09-.06.06-.18.35-.19.43-.16.55-.19.64-.16.74-.17.86-.14,1-.17,1.07-.16,1.19-.14,1.31-.15,1.42L124,54.21l-.15,1.69-.14,1.81-.14,1.93-.15,2.09L123.23,64l-.12,2.34L123,68.8l-.12,2.65-.14,2.8-.13,3-.14,3.11-.13,3.26L122.18,87,122,90.6l-.13,3.76-.14,3.92-.12,4.09-.15,4.28-.12,4.45-.14,4.65-.13,4.8-.14,5-.14,5.2-.15,5.38-.12,5.59-.15,5.77-.16,6-.14,6.18-.15,6.48-.12,6.47-.12,6.47-.11,6.47-.08,6.45-.08,6.45-.06,6.46-.06,6.43,0,6.41,0,6.39v19.08l0,6.31,0,6.29.06,6.24.06,6.23.08,6.2.08,6.17.11,6.1.12,6.1.12,6,.15,6,.14,5.94.16,5.92.19,5.85.18,5.81.21,5.76.21,5.69.22,5.65.25,5.59.24,5.5.27,5.47.27,5.4.29,5.32.28,5.26.31,5.18.33,5.12.33,5.05.35,4.95.33,4.56.33,4.48.3,4.36.33,4.27.29,4.15.31,4.05.29,4,.31,3.85.26,3.74.29,3.63.27,3.54.26,3.43.25,3.33.25,3.2.24,3.12.25,3,.23,2.9.22,2.79.23,2.7.2,2.58.21,2.47.2,2.36.19,2.26.18,2.16.19,2.05.16,1.94.17,1.82.16,1.73.15,1.6.14,1.5.14,1.4.13,1.29.12,1.17.1,1.07.13,1,.1.84.08.74.08.62.09.51.06.41.12.45.21.48.26.51.33.55.41.6.45.62.52.63.57.68.62.7.66.72.7.72.76.74.78.76.82.76.84.78.86.78.91.76.92.78.93.76.94.76,1,.76.94.74,1,.72,1,.7.95.68.94.65.93.62.92.62.89.55.88.54.84.49.82.45.78.41.76.37.72.33.66.25.64.22.55.15.54.1.45,0h.16l.19,0,.2,0,.25,0,.25-.06.26-.09.31-.1.31-.1.33-.1.35-.15.37-.14.39-.15.41-.16.43-.19.43-.18.45-.19.48-.22.47-.21.49-.22.52-.25.51-.25.53-.24.54-.27.55-.27.56-.28.57-.29.58-.29.59-.31.6-.31.6-.32.59-.31.62-.33.61-.33.64-.35.62-.35.63-.35.62-.35.64-.35.63-.37.64-.37.64-.35.61-.37.64-.34.64-.37.64-.35.61-.33.64-.35.62-.33.61-.33.62-.33.61-.31.6-.3.6-.31.59-.29.58-.29.57-.29.56-.26.55-.27.54-.27.53-.24.53-.23.5-.23.49-.22.49-.21.48-.2.45-.19.43-.16.41-.17.41-.16.39-.14.37-.13.35-.12.33-.1.31-.09.29-.08.26-.06.25-.06.23,0,.2,0,.19,0h.18l.21,0,.26,0,.29.06.33.06.35.1.39.11.41.12.45.16.47.15.52.18.53.21.56.2.57.23.62.25.64.24.65.27.68.29.7.31.72.3.74.33.76.33.78.35.78.35.82.37.82.39.85.39.84.39.86.41.88.41.89.43.9.44.91.45.92.43.93.45.92.47.94.48.95.47.95.47.94.47,22.68,11.8,23.14-12.23L295.63,503l37.82,25.8,21.8-10.89,1.81-.9,1.68-.84,1.61-.82,1.5-.74,1.41-.72,1.34-.68,1.27-.62,1.19-.57,1.15-.52,1.09-.47,1-.43,1-.39,1-.33.93-.29.9-.24.88-.19.89-.14.86-.08.88-.05h.89l.88.07.91.1.94.16,1,.21,1,.27,1.05.3,1.11.37,1.15.41,1.23.48,1.3.51,1.35.58,1.44.61,1.54.68,1.63.74,1.72.78,1.85.84,1.93.91,2.08.94,2.17,1,2.33,1.05,14.69,6.67,18-12.24,18.25-12,10,3.1.42.15.45.14.45.14.45.15.47.14.5.15.49.16.51.16.52.17.51.16.54.17.53.16.53.17.56.16.55.19.56.16.55.18.58.17.55.18.58.17.55.18.58.17.55.18.58.17.57.18.56.17.55.16.56.19.55.16.54.16.55.17.54.16.51.15.51.16.52.15.49.16.49.14.5.15.45.14.47.12.43.15.43.12.46.12.45.15.45.12.47.12.45.13.46.12.47.12.47.13.45.12.48.1.45.13.47.1.45.12.47.11.46.1.45.1.45.08.45.11.43.08.44.08.43.08.41.09.43.08.39.08.41.06.39.06.37.06.37,0,.37.06.35,0,.33,0,.33,0,.31,0,.3,0,.29,0,.27,0h.24l.25,0,.47,0,.54-.06.59-.08.64-.12.66-.15.72-.16.76-.21.8-.22.82-.25.84-.29.89-.29.9-.32.92-.33.93-.35.94-.37,1-.37,1-.41,1-.39,1-.41,1-.44.95-.43.94-.43.93-.43.92-.45.91-.43.86-.44.84-.45.82-.43.8-.43.74-.41.72-.43.66-.39.64-.41.57-.37.52-.37.47-.35.41-.35.35-.31.29-.31.22-.27.06-.12.05-.18.08-.23.06-.29.08-.31.06-.39.11-.41.08-.45.08-.51.1-.56.11-.57.1-.64.1-.68.12-.7.11-.74.12-.78.12-.82.13-.84.12-.88.12-.91.15-.94.12-1,.14-1,.13-1,.14-1.05.15-1.07.12-1.09.14-1.13.15-1.13.14-1.17.14-1.17.15-1.21.12-1.21.14-1.22.15-1.25.14-1.25.15-1.28.12-1.27.14-1.3.13-1.29.14-1.31.14-1.36.13-1.36.14-1.37.15-1.38.14-1.38.14-1.39.15-1.42.16-1.4.14-1.42.15-1.41.14-1.42.17-1.4.14-1.42.14-1.39.17-1.4.14-1.4.15-1.37.14-1.36.16-1.36.15-1.35.14-1.32.15-1.31.12-1.27.14-1.28.15-1.23.12-1.21.14-1.22.13-1.15.12-1.15.12-1.09.13-1.08.1-1,.12-1,.11-1,.1-.93.1-.88.1-.87.09-.8.08-.76.16-1.48.17-1.87.18-2.21.19-2.57.2-2.88.21-3.16.22-3.45.23-3.7.23-3.95L547,389l.25-4.37.25-4.57.24-4.72.25-4.87.27-5,.24-5.1.25-5.18.27-5.26.24-5.32.25-5.34.25-5.36.22-5.34.25-5.32.22-5.28.23-5.22.21-5.14.2-5,.19-4.91.18-4.79.19-4.6.14-4.44.14-4.25.15-4,.12-3.8.1-3.56.09-3.26.06-3,0-2.69,0-2.35v-3.84l0-1.07,0-1.15,0-1.25,0-1.36,0-1.45-.07-1.59-.06-1.72-.06-1.83-.08-2-.08-2.12-.09-2.28-.1-2.45-.12-2.58-.13-2.78-.12-2.94-.14-3.12-.17-3.31-.16-3.51-.19-3.7-.18-3.92-.21-4.13-.2-4.36-.23-4.58-.22-4.81-.25-5.05-.27-5.3-.29-5.55-.28-5.81-.31-6.08-.31-6.33-.33-6.64-.35-6.9-.37-7.19-.37-7.5-.41-7.81-.39-8.09-.43-8.43L545,93.62l-.1-1.83L544.8,90l-.1-1.8-.1-1.77-.11-1.77-.1-1.72-.12-1.71-.1-1.71-.11-1.64-.12-1.64-.1-1.61L543.71,73l-.1-1.54-.12-1.5-.1-1.48-.13-1.44-.1-1.39L543,64.32,542.93,63l-.12-1.3-.1-1.23-.13-1.17-.1-1.15-.1-1.09-.12-1-.11-1-.1-.95-.1-.88-.13-.83-.1-.78-.1-.72-.1-.65-.09-.58-.1-.53-.1-.47-.08-.39-.11-.33-.08-.27-.08-.19-.08-.12-.25-.08-.58-.1-.88-.09L537.92,47l-1.48-.1-1.79-.1-2-.09-2.34-.1-2.61-.1-2.9-.1-3.14-.11-3.39-.1-3.66-.1-3.88-.1-4.13-.11-4.36-.12-4.58-.1-4.79-.11-5-.1-5.2-.12-5.4-.11-5.59-.1L465.85,45l-6-.1-6.12-.11-6.31-.1L441,44.6l-6.6-.1-6.74-.13-6.88-.1-7-.08-7.15-.11-7.25-.1-7.37-.1-7.5-.1-7.58-.09-7.69-.1-7.77-.08-7.84-.08-7.91-.09-7.95-.06-7.89-.08L322,43.14l-7.77-.06L306.58,43,299,42.93l-7.5-.06-7.4-.06-7.31-.06-7.17-.06-7.07-.06-7-.07-6.82-.06-6.65-.06-6.54-.06-6.37-.06-6.2-.06L217,42.19l-5.88,0-5.69-.06L199.88,42l-5.3,0-5.11-.06-4.91,0-4.71,0-4.46-.06-4.25,0-4,0-3.79,0-3.53,0-3.27,0-3,0-2.75,0-2.46,0-2.18,0-1.89,0-1.6,0-1.32,0-1,0-.67,0h-.52Zm115,387.49.41.08.45.13.52.14.55.18.62.21.66.23.72.26.78.27.82.31.86.33,1,.33,1.07.37,1.15.37,1.23.39,1.31.41,1.4.41,1.46.43,1.52.43,1.58.45,1.65.45,1.68.48,1.73.47,1.78.47,1.81.47,1.85.5,1.89.47,1.89.47,1.93.5,1.93.47,1.93.47,2,.47,1.95.46,1.95.47,1.93.43,1.93.45,1.91.43,1.87.41,1.87.41,1.83.4,1.79.37,1.75.34,1.7.35,1.66.33,1.11.23,1.09.22,1.07.19,1.05.2,1,.17,1,.18,1,.15.94.14.93.12.9.13.91.1.86.1.86.09.84.06.85.06.82,0,.82,0,.82,0,.8,0h.8l.81,0,.8,0,.8,0,.78,0,.82-.06.8-.06.8-.09.82-.08.85-.1.84-.12.84-.11.86-.14.89-.14.88-.15,1.56-.29,1.59-.28,1.58-.29,1.6-.31,1.6-.33,1.63-.33,1.64-.33,1.64-.34,1.65-.35,1.66-.37,1.64-.37,1.67-.37,1.68-.39,1.67-.39,1.66-.39,1.69-.42,1.66-.41,1.66-.41,1.67-.41,1.66-.43,1.65-.43,1.64-.43,1.64-.45,1.65-.44,1.6-.45,1.62-.45,1.59-.45,1.6-.45,1.56-.48,1.56-.45,1.54-.47,1.52-.47,1.5-.48,1.48-.47.66-.18.66-.19.65-.18.64-.19.64-.18.61-.17.62-.18.62-.17.57-.14.6-.17.55-.14.56-.14.53-.15.51-.12.52-.12.49-.13.47-.1.46-.12.43-.08.41-.11.39-.08.37-.06.35-.08.33,0,.28-.07.29,0,.25,0,.22,0h.21l.16,0,.15,0h.12l.08,0,.07,0,0,.15-.11.26-.22.35-.35.43-.47.54-.58.59-.68.68-.78.74-.86.82-.95.85-1,.92-1.09.95-1.15,1-1.19,1-1.24,1-1.29,1.07-1.3,1.06-1.33,1.09-1.34,1.09L398.09,445l-1.36,1.07-1.35,1.05-1.34,1-1.31,1-1.28,1-1.25.92-1.19.86-1.15.82-1.11.76-1,.7-1,.64-.86.56-.8.47-.7.37-.74.39-.78.41-.8.39-.82.39-.87.39-.9.39-.92.41-.93.39-1,.39-1,.39-1,.39-1,.39-1.06.39-1.09.37-1.11.39-1.13.37-1.13.37-1.17.37-1.17.37-1.2.37-1.21.35-1.23.37-1.23.35-1.26.35-1.27.33-1.27.33-1.28.33-1.29.33-1.32.3-1.31.31-1.32.31-1.31.29-1.34.28-1.33.29-.91.19-.88.18-.84.17-.83.14-.82.14-.78.15-.76.1-.76.12-.74.09-.74.08-.72.06-.74.06-.69,0-.72,0-.74,0h-1.44l-.76,0-.74,0-.76,0-.8-.08-.8-.08-.83-.11-.84-.1-.86-.12-.91-.15-.92-.16-1-.16-1-.19-1-.21-1.07-.22L318,468.1l-1.15-.26-1.21-.27-2-.45-2-.5-1.95-.49-1.91-.53-1.91-.56-1.87-.57-1.87-.58-1.83-.62-1.81-.63-1.78-.66-1.77-.7-1.73-.7-1.72-.72-1.69-.74-1.66-.76-1.64-.8-1.63-.8-1.58-.82-1.58-.86-1.54-.87-1.5-.9-1.5-.9-1.46-1-1.44-1-1.42-1-1.39-1-1.36-1-1.33-1-1.32-1.07-1.27-1.09L265,443.2l-1.23-1.11-1.19-1.15-1.17-1.17-1-1-.94-1-.87-.91-.82-.86-.76-.8-.7-.76-.63-.7-.6-.66-.53-.59-.48-.54-.41-.51-.35-.45-.3-.41-.25-.37-.19-.31-.14-.29-.08-.23,0-.2,0-.14.08-.13.14-.08.19,0,.25,0,.28,0Zm206.3-146.26,2.61.72,2.55,1,2.46,1.19,2.36,1.44,2.29,1.67,2.13,1.87,2,2.09,1.84,2.3,1.69,2.53,1.52,2.71.82,1.85.68,1.85.55,1.83.42,1.83.26,1.8.15,1.81,0,1.81-.15,1.79-.26,1.79-.39,1.76L483,320l-.68,1.77-.82,1.74-.94,1.75-1.07,1.72-1.21,1.73-1.36,1.73-1.5,1.7-1.52,1.54-1.62,1.4-1.71,1.27-1.79,1.13-1.85,1-1.91.86-2,.74-2,.6-2.06.43-2.07.31-2.1.18h-2.13l-2.12-.12-2.14-.27-2.11-.43-2.12-.57-2.07-.74-2.06-.89-1.48-.78-1.48-.94-1.42-1.09-1.41-1.21-1.36-1.32-1.31-1.44-1.26-1.52-1.19-1.6L428,327l-1-1.71-.94-1.75-.84-1.76-.74-1.79-.62-1.77-.51-1.74-.35-1.75-.23-1.66-.08-1.65.06-1.46.21-1.52.31-1.54.45-1.56.53-1.58.66-1.58.76-1.56.84-1.59.93-1.54,1-1.5,1.09-1.48,1.15-1.41,1.21-1.38,1.28-1.3,1.31-1.23,1.38-1.13,1.4-1.05,1.44-.94,2.54-1.38,2.61-1.11,2.67-.82,2.67-.55,2.72-.29,2.69,0,2.69.22Zm-239,.22,3,1,2.92,1.25,2.77,1.54,2.57,1.83,2.39,2.06,2.11,2.3,1.83,2.5,1.54,2.72,1.19,2.89.8,3.06.4,3.25.14,2.16.08,2,0,1.85v1.68l-.06,1.57-.12,1.45-.19,1.36-.26,1.29-.31,1.22-.41,1.15-.48,1.13-.57,1.13-.66,1.11-.74,1.11-.84,1.15-1,1.19-1,1.25-1.18,1.34-1.13,1.23-1,1.11-1,1-.92.88-.89.74-.86.66-.86.57-.89.47-.92.41-.95.31-1,.27-1.11.21-1.24.16-1.35.1-1.48.06-1.64,0-1.81,0-2,0-1.89,0-1.7,0-1.58-.07-1.42-.08-1.32-.1-1.19-.17-1.11-.18-1.05-.25-1-.28-.9-.35-.89-.39-.84-.48-.84-.51-.85-.62-.86-.65-.9-.76-.95-.83-1-.92-1.32-1.38L191,331.08l-1.15-1.5L188.75,328l-1-1.6-.86-1.62-.78-1.67-.68-1.7-.55-1.73-.48-1.74-.37-1.75-.24-1.77-.15-1.76,0-1.75.09-1.75.18-1.74.31-1.71.41-1.68.41-1.44.45-1.36.45-1.29.5-1.21.53-1.15.58-1.11.61-1.05.66-1,.7-1,.78-.95.84-.9.89-.87,1-.88,1.05-.84,1.13-.86,1.21-.87,1.3-.86,1.39-.88,3-1.52L205.1,283l3.15-.76,3.18-.35,3.19,0,3.18.33Z" transform="translate(345.34 -14.14)"/><path id="b4APnxcPI9-2" data-name="b4APnxcPI9" class="cls-2" d="M350.57,693.57l1.41,0,1.44,0,1.42.06,1.42.06,1.39.11,1.4.08,1.38.12,1.35.13,1.36.14,1.31.16,1.28.17,1.27.18,1.23.19,1.2.2,1.17.23,1.11.25,1.09.24,1,.27,1,.27,1.93.61,1.91.68,1.89.72,1.87.78,1.87.82,1.83.89,1.83.92,1.79,1,1.78,1,1.75,1.09,1.73,1.13,1.7,1.17,1.69,1.22,1.64,1.25,1.62,1.31,1.6,1.36,1.57,1.38,1.54,1.44,1.5,1.45,1.48,1.52,1.43,1.55,1.4,1.58,1.38,1.62,1.33,1.64,1.3,1.69,1.25,1.72,1.23,1.75,1.18,1.79,1.15,1.81,1.11,1.83,1,1.86,1,1.89,1,1.94.92,2,.88,2,.85,2,.8,2,.74,2,.68,2.06.65,2.07.39,1.42.37,1.48.33,1.52.33,1.58.31,1.6.29,1.65.24,1.68.25,1.73.2,1.74.21,1.77.16,1.79.17,1.83.12,1.82.1,1.85.09,1.87.06,1.87.06,1.87,0,1.89v1.89l0,1.87,0,1.89-.06,1.87-.09,1.87-.12,1.83L433.9,799l-.15,1.81-.18,1.78-.19,1.77-.22,1.75-.25,1.7-.24,1.67-.29,1.64-.31,1.6-.33,1.57-.35,1.52-.37,1.45-.39,1.42-.41,1.36-.43,1.31-.45,1.26-1.13,2.89L427,828.37l-1.26,2.75-1.29,2.69-1.38,2.61L421.67,839l-1.48,2.49-1.52,2.38-1.58,2.32-1.64,2.24-1.71,2.18L412,852.65l-1.81,2-1.85,2-1.91,1.87-1.95,1.79-2,1.72-2,1.62-2.12,1.57-2.15,1.5-2.22,1.39-2.26,1.32-2.3,1.25L387,871.82l-2.4,1.09-2.45,1-2.48.92-2.55.84-2.59.76-2.63.68-2.67.6-2.71.51-2.77.45-2.8.35-2.85.27-2.88.17-2.94.1-3,0-3-.08-3.06-.15-3.55-.29-3.48-.39-3.43-.53-3.35-.64-3.28-.76-3.23-.88-3.14-1-3.06-1.11-3-1.21-2.92-1.33L308,869.79l-2.77-1.56-2.67-1.65-2.61-1.76L297.37,863l-2.44-2-2.34-2-2.28-2.16-2.18-2.26-2.1-2.36-2-2.44-1.91-2.55-1.83-2.63-1.73-2.73L277,839l-1.54-2.9-1.44-3-1.33-3.06-1.26-3.14-1.13-3.25-1-3.3-1-3.39-.82-3.46-.72-3.53-.62-3.62-.51-3.67-.39-3.76-.29-3.82-.16-3.89-.06-4,0-3.39.12-3.35.21-3.31.26-3.23.37-3.2.43-3.14.52-3.09.59-3,.68-3,.76-2.91.82-2.88.91-2.81,1-2.76,1.05-2.69,1.13-2.65,1.21-2.59,1.28-2.53,1.35-2.46,1.42-2.4,1.5-2.35,1.56-2.28,1.65-2.24,1.7-2.15,1.77-2.1,1.87-2,1.91-2,2-1.91,2.06-1.85,2.13-1.76,2.2-1.71,2.26-1.64,2.32-1.56,2.41-1.5,2.46-1.44,2.53-1.36,2.61-1.29,2.65-1.21,2.73-1.15,2.8-1.09,2.85-1,.86-.27.91-.26,1-.25,1-.23,1-.22,1.11-.19,1.13-.18,1.19-.19,1.21-.14,1.23-.14,1.3-.15,1.29-.1,1.34-.1,1.33-.09,1.38-.08,1.38,0,1.39,0,1.42,0h2.84ZM985.05,875.13l-14-.66-.45-63.4,0-2.61,0-2.59,0-2.57,0-2.54-.05-2.51,0-2.49,0-2.44,0-2.43,0-2.36,0-2.34,0-2.3,0-2.26,0-2.2,0-2.18,0-2.09,0-2.08,0-2,0-2,0-1.92V765.4l0-1.77,0-1.71,0-1.64v-1.56l0-1.5,0-1.42v-1.35l0-1.28V752l0-1.11v-2l0-.84v-2.47l0-.39v-.78l0-.31,0-.29,0-.26-.06-.25-.07-.23-.08-.18-.08-.19-.1-.16-.11-.12-.12-.13-.12-.08-.15-.08-.12,0-.14,0-.17,0h-.14l-.17,0-.16,0-.16.06-.17.08-.16.11-.19.12-.16.14-.17.17-.18.16-.17.19-.16.2-.16.23-.17.22-.16.25-.17.27-.14.28-.15.31-.14.31-.14.31-.13.35-.12.35-.12.37-.11.37,0,.24-.08.27-.08.29-.08.35-.11.35-.12.41-.12.41-.15.47-.14.47-.14.52-.19.53-.16.56-.19.59-.2.62-.21.62-.2.65-.23.68-.23.7-.24.72-.25.74-.25.74-.26.76-.27.8-.27.78-.28.82-.29.82-.29.85-.31.84-.31.86-.3.86-.31.89-.33.88-.33.91-.33.9-.33.9-.33.91-.35.9-.35.93-.32.9-.35.92-.35.93-.33.9-.33.93-.35.92-.33.91-.33.9-.33.9-.32.91-.33.88-.33.88-.31.89-.33.86-.31.86-.3.85-.31.84-.31.82-.29.8-.31.8-.26.78-.29.76-.27.76-.27.72-.26.72-.25.68-.25.68-.22.64-.23.63-.2.6-.21.57-.2.56-.19.51-.16.52-.17.47-.14.43-.15.41-.12.39-.12.35-.1.31-.09.29-.08.24-.18.56-.13.31-.12.34-.12.39-.15.42-.16.43-.17.47-.18.51-.19.52-.2.55-.21.58-.2.59-.23.64-.25.64-.22.67-.25.68-.26.72-.25.72-.27.76-.29.76-.26.78-.29.8-.29.8-.31.83-.3.84-.29.84-.31.86L939,820l-.31.88-.33.88-.3.89-.33.9-.33.91-.33.9-.33.9-.33.93-.33.92-.35.91-.65,1.85-.35.92-.33.95-.35.94-.35.95-.35,1-.35,1-.33.94-.35,1-.35,1-.35,1-.34,1-.35,1-.35.95-.35,1-.33,1-.35.92-.33,1-.33.9-.33.92-.33.89-.3.9-.31.86-.31.87-.31.84-.31.82-.28.82-.29.78-.27.78-.27.74-.26.74-.25.7-.25.68-.22.66-.23.63-.22.6-.21.58-.18.55-.19.51-.18.48-3.78,11.13-12,.66-.5,0-.47,0-.49,0-.47,0-.48,0-.47,0h-.45l-.45,0h-2.22l-.43,0h-.41l-.42,0-.39,0-.39,0-.39,0-.37,0-.37,0-.35,0-.32,0-.33,0-.33-.06-.31-.05-.29,0-.29,0-.26-.06-.25-.06-.25-.06-.22-.06-.21-.07-.18-.06-.19-.06-.16-.08-.14-.08-.13-.07-.1-.08-.1-.08-.09-.1-.08-.13-.1-.18-.12-.25-.15-.26-.16-.33-.17-.37L893,872l-.21-.45-.2-.5-.23-.51-.24-.58-.25-.59-.27-.64-.29-.66-.26-.7-.31-.74-.31-.76-.31-.8-.33-.82-.33-.86-.34-.86-.35-.93-.35-.92-.37-1-.37-1-.37-1-.39-1-.39-1-.39-1.06-.39-1.07-.41-1.09-.42-1.11-.41-1.11-.41-1.13L883.7,848l-.41-1.15-.41-1.17-.41-1.17-.43-1.17-1-3-1.07-3-1.07-3-1.09-3-1.09-3-1.1-3.07-1.09-3.08L873.37,819,872.28,816l-1.09-3.06-1.09-3-1.09-3-1.09-3-1.07-3-1-3-1-2.92-1-2.87-1-2.84-1-2.79-1-2.74-1-2.67-.93-2.63-.92-2.55-.89-2.46-.86-2.4-.84-2.35-.8-2.24-.76-2.13-.74-2.08-.72-2-.66-1.87-.64-1.75-.57-1.64-.56-1.52-.49-1.42-.47-1.27-.39-1.15-.37-1-.31-.88-.27-.74-.14-.41-.15-.39-.14-.37-.14-.37-.15-.33-.14-.33-.12-.31-.15-.31-.12-.26-.12-.27-.15-.25-.12-.22-.13-.23-.12-.21-.12-.18-.1-.16-.13-.17-.12-.14-.1-.13-.13-.1-.1-.1-.12-.08-.11-.07-.1-.06-.1,0-.12,0-.11,0h-.1l-.1,0-.11,0-.1,0-.1.07-.1.06-.11.08-.1.1-.1.1-.1.13-.11.14-.08.15-.1.16-.08.16-.09.27-.08.39-.08.49-.08.58-.09.68-.08.78-.06.88-.08,1-.06,1-.08,1.13-.07,1.23-.08,1.29-.06,1.4-.06,1.46-.06,1.54-.07,1.6-.06,1.69-.06,1.74,0,1.83-.06,1.87,0,1.95-.06,2-.05,2.05,0,2.12,0,2.15,0,2.22,0,2.26,0,2.3,0,2.37,0,2.38,0,2.45,0,2.46,0,2.51,0,2.52v2.57l0,2.59v2.61l0,2.65v67.84H814.2V697.39l21.57.66,21.37.68,7.33,21.12.31.9.33,1,.35,1,.37,1.07.39,1.11.39,1.15.41,1.21.43,1.26.45,1.29.45,1.32.5,1.37.47,1.4.49,1.46.52,1.46.53,1.52.51,1.52.56,1.56.53,1.58.56,1.6.57,1.63.58,1.64.57,1.66.58,1.69.59,1.68.58,1.69.6,1.7.59,1.73.6,1.71.61,1.72.6,1.73.6,1.7.59,1.73.6,1.7.59,1.69.6,1.7.59,1.67.6,1.66.58,1.67.57,1.62.58,1.62.55,1.6.58,1.59.55,1.6.56,1.58.55,1.56.56,1.58.55,1.55.53,1.54.54,1.54.53,1.5.52,1.5.51,1.46.51,1.45.5,1.44.49,1.4.47,1.4.47,1.35.46,1.32.45,1.29.43,1.28.43,1.23.41,1.21.39,1.15.39,1.13.37,1.09.35,1,.33,1,.33,1,.31.93.29.88.28.82.25.78.25.72.2.68.21.61.18.58.17.51.12.46.12.39.11.32.14.52.16.49.17.49.16.5.17.45.18.47.19.43.18.44.19.43.2.41.19.39.2.37.21.37.2.35.21.33.2.32.21.29.21.29.22.29.21.24.2.25.23.21.2.2.21.19.23.16.2.14.21.15.2.1.21.08.2.06.21.07.2,0h.21l.18,0,.19,0,.18-.07.19-.08.18-.1.17-.12.18-.17.13-.25.22-.57.35-.88.47-1.22.56-1.5.64-1.76.73-2,.83-2.28.9-2.5,1-2.74,1-2.91,1.09-3.13,1.17-3.28,1.22-3.44,1.25-3.59,1.29-3.7,1.34-3.82,1.38-3.93,1.37-4,1.42-4.07,1.44-4.11,1.44-4.17,1.43-4.17,1.44-4.19,1.44-4.17,1.44-4.15,1.42-4.11,1.37-4.07,1.38-4,1.34-3.9,1.29-3.82,1.25-3.7,1.19-3.57,1.18-3.41,1.08-3.29,1-3.08,1-2.92.88-2.71.82-2.49.72-2.26,4-12.22,21.59-.68,21.35-.66v178.4Zm-391.53,0-16.26-.66-20-31.82-.84-1.34-.84-1.37-.88-1.42-.91-1.46-.92-1.48-1-1.52-1-1.54-1-1.58-1-1.59-1-1.62-1-1.64-1.05-1.67-1-1.68-1-1.69-1.07-1.7-1.09-1.73-1.07-1.72-1.09-1.73-1.09-1.72-1.09-1.75L536.22,809l-1.09-1.72-1.07-1.75L533,803.75l-1.09-1.7-1.07-1.73-1-1.68L528.7,797l-1.05-1.68-1-1.64-1-1.63-1-1.6-1-1.6-1-1.54-1-1.54-.93-1.5-.92-1.46-.9-1.44-.87-1.38-.84-1.35-.82-1.32-.8-1.29-.82-1.3-.79-1.27-.8-1.25-.78-1.24-.78-1.21-.76-1.21-.76-1.17-.74-1.17-.74-1.13-.72-1.11-.7-1.09-.69-1.07-.68-1-.68-1-.64-1-.63-1-.62-.9-.6-.9-.57-.85-.56-.82-.55-.8-.51-.74L500,752l-.47-.68-.45-.61-.43-.6-.39-.55-.39-.52-.35-.47-.33-.41-.29-.39-.27-.33-.24-.29-.21-.22-.18-.19-.15-.12-.1-.08-.1,0-.06,0-.07.16-.06.27-.08.35-.06.47-.08.56-.07.65-.06.74-.08.84-.06.93-.08,1-.06,1.09-.07,1.19-.08,1.25-.06,1.36-.06,1.41-.06,1.48-.09,1.56-.06,1.65-.06,1.7-.06,1.77-.06,1.83-.06,1.89,0,2-.07,2-.06,2.08,0,2.12-.06,2.15,0,2.22,0,2.28-.06,2.3-.05,2.37,0,2.4,0,2.42,0,2.47,0,2.51,0,2.54,0,2.57,0,2.59,0,2.63-.66,64.08H466l-.66-88.55-.45-88.32h17.79l1,0h1.95l.93,0h.86l.82,0,.78,0,.76,0,.7,0,.68,0,.64,0,.59,0,.58.06.53.07.52.06.49.06.45.08.43.1.39.09.39.1.35.12.35.13.31.12.31.14.29.15.26.16.25.19.25.18.22.19.21.2.22.23.19.22.2.25.19.25.18.26.19.29.18.31.19.31.18.33.23.45.35.62.45.8.56.94.63,1.11.74,1.25.84,1.4.93,1.54,1,1.69,1.11,1.83,1.17,1.93,1.25,2.07,1.33,2.18,1.4,2.3,1.46,2.4,1.54,2.51,1.6,2.59,1.65,2.71,1.72,2.78,1.77,2.87,1.81,3,1.87,3,1.91,3.08,1.95,3.17,2,3.22,2,3.27,2.05,3.33,2.1,3.37,2.11,3.41,2.16,3.45,2.16,3.47,2.18,3.51,2.19,3.54,2.22,3.53,2.22,3.56,2.22,3.57,2.24,3.56,2.22,3.57,2.24,3.55,2.22,3.54.59.94.6.91.6.92.57.89.58.88.55.88.58.87.53.84.56.82.53.82.51.78.52.78.49.76.49.76.5.72.45.7.47.68.43.66.43.63.41.62.42.58.39.57.37.53.34.52.35.49.31.45.31.43.29.4.29.37.24.32.23.31.22.27.19.25.18.2.17.17.12.14.13.1.08.06.06,0,0,0,.06-.08,0-.18.06-.31,0-.39,0-.52,0-.59.06-.68,0-.8,0-.86,0-1,0-1.07,0-1.13,0-1.23,0-1.29,0-1.38,0-1.46,0-1.52,0-1.6,0-1.69,0-1.72,0-1.81,0-1.87.05-1.93,0-2,0-2.05,0-2.1,0-2.15,0-2.2,0-2.24,0-2.3,0-2.34,0-2.39,0-2.42,0-2.47,0-2.5,0-2.53,0-2.55,0-2.59,0-2.63,0-2.63.45-64.28,14-.68,13.78-.66v178.4ZM-201.35,721-257,723.2l-2.21,151.27-13.81.66-14,.66V786.27l0-4.29v-4.09l0-3.88v-3.72l0-3.52,0-3.35,0-3.16,0-3,0-2.81,0-2.68,0-2.52-.06-2.37,0-2.19-.06-2.08-.07-1.93-.06-1.81-.08-1.66-.06-1.56-.08-1.42-.11-1.32-.1-1.21-.1-1.11-.1-1-.13-.91-.12-.8-.12-.74-.15-.66-.14-.57-.17-.5-.16-.43-.16-.37-.19-.33-.18-.26-.21-.21-.21-.16-.22-.15-.23-.1-.16,0-.23,0-.24-.06-.29,0-.31-.07-.37,0-.39,0L-293,723l-.47,0-.5,0-.53-.06-.56,0-.59,0-.62,0-.64,0-.67,0-.7-.06-.72,0-.76,0-.78,0-.78,0-.82,0-.85,0-.86,0-.86,0-.91,0-.9,0-.93,0-.94,0-1,0-1,0-1,0-1,0h-1l-1,0-1,0h-3.13l-1.05,0h-25.35V697.6H-200l-.68,11.56Zm850.91-23.34h3.25l1,0,.92,0,.88,0,.83,0,.78,0,.72,0,.69,0,.66.06.62.06.57.07.54.06.51.08.47.1.46.11.41.1.39.12.37.13.35.16.3.14.31.19.29.16.27.21.26.2.25.23.23.25.22.26.23.27.2.29.23.31.21.32.2.35.23.37.2.39.23.39.23.44.94,1.82,1,1.92,1.07,2,1.13,2,1.17,2.12,1.21,2.16,1.25,2.21,1.3,2.26,1.31,2.31,1.36,2.32,1.35,2.34,1.4,2.34,1.42,2.39,1.42,2.36,1.41,2.36,1.44,2.34,1.42,2.34,1.44,2.33,1.41,2.28,1.4,2.24,1.38,2.19,1.35,2.16,1.34,2.1,1.31,2,1.28,2,1.23,1.87,1.19,1.81,1.15,1.71,1.09,1.62,1,1.5,1,1.4.92,1.29.86,1.15.78,1,.7.88.62.76.55.62.46.45.35.29.26.1.17,0,.14,0,.14,0,.15,0,.14,0,.15,0h.65l.13,0,.12,0,.1,0,.13,0,.12,0,.1,0,.1,0,.11,0,.1,0,.08,0,.1,0,.09-.06.08,0,.08-.06.06-.06.09-.06.06-.06.06-.08,0-.07.06-.08,0-.06,0-.08,0-.08,0-.11,0-.08,0-.08,0-.1,0-.11v-.2l0-.15,0-.14,0-.14,0-.19,0-.16.06-.19.06-.2.09-.21.06-.2.1-.23.08-.23.11-.24.1-.25.12-.27.12-.24.13-.27.12-.29.15-.29.14-.28.14-.29.17-.31.14-.31.17-.31.16-.3.18-.33.19-.31.16-.33.19-.33.2-.35.19-.33.18-.35.21-.32.21-.35.2-.35.21-.35.2-.35.23-.35.2-.35.23-.35.2-.33.23-.37.25-.35.24-.37.25-.39.25-.39.24-.41.27-.41.27-.41.26-.43.29-.43.27-.45.29-.44.28-.45.29-.47.29-.45.29-.48.28-.45.29-.47.29-.47.31-.47.29-.48.28-.47.29-.47.29-.48.29-.47.28-.47.29-.45.27-.47.27-.46.28-.45.27-.45.25-.43.26-.45.25-.44.25-.41.24-.41.23-.41.25-.41.2-.37.23-.39.24-.41L733,744l.29-.47.29-.5.28-.51.33-.56.31-.55.35-.6.35-.59.37-.64.37-.64.37-.67.41-.68.39-.7.41-.72.41-.72.43-.74.43-.76.46-.78.43-.76.45-.8.45-.78.47-.8.46-.82.47-.81.94-1.64.48-.82.47-.84.47-.83.47-.82.48-.82.47-.82.47-.82.45-.82.48-.81.45-.8.47-.8.45-.8,11.12-19.35h16.89l.63,0h1.89l.62,0h.62l.59,0h.58l.57,0,.58,0,.55,0,.56,0h.53l.52,0,.49,0,.49,0,.5,0,.45,0,.45,0,.43,0,.41,0,.39.05.37,0,.37,0,.33,0,.33,0,.31,0,.26,0,.27,0,.23,0,.22,0,.19,0,.16,0,.15.05.12,0,.08,0,.06,0,0,0,0,0v.06l-.05.1-.06.15-.08.18-.12.23-.13.25-.14.28-.19.33-.18.35-.23.39-.22.43-.27.46-.27.47-.3.51-.31.54-.33.55-.35.6-.37.61-.37.66-.39.66-.41.7-.43.69-.45.74-.46.76-.47.79-.47.8-.5.82-.51.84-.51.84-.54.89-.53.88-.56.9-.55.91-.58.94-.57.93-.6,1-.59,1-.6,1-.59,1-.62,1-.62,1-.59,1-.62,1-.62,1-.59,1-.62,1-1.23,2-.62,1-.59,1-.62,1-.59,1-.6,1-.6,1-.59,1-.58,1-.57.94-.58.93-.55.92-.56.91-.53.88-.54.86-.53.87-.49.84-.5.8-.49.8-.47.78-.45.74-.44.74-.43.7-.41.68-.39.63-.37.62-.35.6-.35.55-.3.51-.29.5-.27.45-.27.43-.22.39-.23.37-.24.41-.25.43-.29.46-.29.47-.3.51-.31.52-.33.55-.35.56-.37.57-.37.6-.37.61-.39.64-.41.66-.41.65-.43.68-.44.68-.43.7-.45.72-.45.72-.47.74-.48.74-.47.74-.47.76-.47.74-.5.78-.49.76-.49.76-.5.78-.49.78-.51.76-.5.78-.49.76-.51.78-.5.76-.49.76-.49.76-.5.76-.49.74-.49.74L728.54,801l-2.22,73.43-14.91.66-15.12.66V804.62l-15.58-24.7-.66-1-.63-1-.68-1-.66-1-.66-1-.65-1.05-.66-1-.68-1-.66-1-.65-1-.66-1-.66-1-.64-1-.63-1-.64-1-.64-1-.61-1-.62-1-.62-1-.59-1-.58-.94-.57-.93-.58-.92-.55-.88-.54-.89-.53-.86-.51-.82-.5-.82-.47-.79-.47-.76-.45-.74-.44-.71-.41-.68-.39-.66-.37-.62-.35-.59-.32-.56-.31-.51-.29-.49-.27-.46-.18-.3-.21-.35-.2-.35-.23-.37-.22-.39-.27-.43-.25-.44-.29-.47-.28-.47-.31-.51-.31-.52-.35-.55-.33-.56-.37-.59-.37-.62-.39-.64-.39-.63-.41-.68-.43-.7-.43-.72-.45-.74-.48-.76-.47-.78-.49-.8-.5-.82-.53-.87-.53-.86-.54-.88-.55-.91-.58-.94-.59-1-.6-1-.6-1-.63-1-.64-1-.66-1.07-.65-1.09-.68-1.09-.7-1.13-.7-1.15L629.55,697.6h18.82ZM-2,697.62h.74l.74,0,.7,0H.84l.66,0,.61,0,.6,0,.6,0,.53,0,.53,0,.52.06.49.05.47.06.43.06.44.06.41.08.39.06.35.09.37.08.32.1.31.1.29.11.29.1.27.1.24.13.23.12.22.12.21.15.18.14.19.14.16.15.17.16.12.17.15.16.12.19.1.18.1.19.09.2,0,.21.06.33,0,.45.06.55,0,.68,0,.78.07.88,0,1,0,1.11.06,1.19,0,1.3,0,1.37,0,1.48.06,1.56.05,1.67,0,1.72,0,1.83,0,1.89,0,2,0,2.06,0,2.12,0,2.19,0,2.26,0,2.33,0,2.38,0,2.44,0,2.49,0,2.55,0,2.61,0,2.65,0,2.71,0,2.75,0,2.78,0,2.83v2.86l0,2.89V769l0,3v79.18h91.2v24.47H-17.82v-178h15ZM-50.07,721l-46.5.67-2.22,0-2.15,0-2.14,0-2.07,0-2,0-2,0-1.93,0-1.89,0-1.85,0-1.79.06-1.75,0-1.68.07-1.64,0-1.61.06-1.54.06-1.5.06-1.44.06-1.39.09-1.34.06-1.29.08-1.23.08-1.2.06-1.13.09-1.09.08-1,.1-1,.08-.9.08-.87.11-.82.08-.74.1-.7.11-.65.1-.58.1-.53.1-.47.11-.42.1-.34.12-.29.1-.25.13-.18.12-.27.31-.27.43-.24.58-.25.67-.23.79-.2.88-.19,1-.18,1.05-.17,1.15-.16,1.22-.14,1.29-.13,1.36-.12,1.39-.08,1.44-.11,1.5-.06,1.52-.06,1.54,0,1.58,0,1.59,0,1.58v3.18l0,1.58,0,1.55,0,1.54.08,1.5.09,1.45.1,1.4.1,1.38.15,1.29.14,1.24.14,1.17.19,1.09.18,1,.19.91.22.82.23.7.25.59.26.47.27.35.19.15.2.14.27.15.29.12.34.12.39.13.44.12.47.12.53.1.58.11.61.1.66.1.72.08.78.11.8.08.89.08.9.06,1,.09,1,.06,1.09.06,1.11.06,1.19.06,1.24.06,1.29,0,1.36,0,1.39.06,1.46,0,1.52,0,1.58,0,1.63,0,1.7,0,1.75,0,1.81,0,1.89,0h1.93l2,0h2.06l2.13,0h47.38V795.5h-54.81l-2.37,0h-2.24l-2.13,0-2.06,0-1.93,0-1.85,0-1.74,0-1.65,0-1.58,0-1.48,0-1.38,0-1.31.06-1.23.07-1.15.06-1.09.06-1,.06-.92.08-.89.09-.8.1-.74.08-.68.1-.63.13-.58.12-.51.12-.47.13-.44.14-.37.14-.35.17-.28.16-.27.17-.23.18-.2.19-.17.2-.12.21-.12.22-.11.23-.14.45-.12.58-.13.7-.12.8-.12.92-.1,1-.09,1.11-.08,1.19-.08,1.27-.06,1.36-.06,1.4-.05,1.48,0,1.52,0,1.56,0,1.6,0,1.64,0,1.67V821l0,1.69v1.68l0,1.69,0,1.68,0,1.65,0,1.64.07,1.6,0,1.56.08,1.52.06,1.46.08,1.42.09,1.34.08,1.27.1,1.19.1,1.09.13,1,.1.92.12.8.13.68.14.58.14.43.15.31.12.14.16.14.23.15.27.12.31.14.37.13.41.12.47.12.53.13.58.1.64.12.67.11.76.1.8.1.87.08.9.11,1,.08,1.05.08,1.11.1,1.17.06,1.23.09,1.29.08,1.36.06,1.44.08,1.5.06,1.56.07,1.64.06,1.71.06,1.79.06,1.84,0,1.94.06,2,.05,2.07.06,2.16,0,2.24,0,2.3,0,2.38,0,2.47,0,2.55,0,2.63,0,48.94.68.67,11.79.66,11.57-65.17-.45-65.19-.66-.66-88.55L-178,697.6H-48.74l-.67,11.56ZM159,850l45.16.68,44.93.45v24.47H129v-178h28.93l.45,76.1ZM348.22,716.87l-.8,0-.78,0-.8.06-.8.06-.8.09-.82.1-.83.1-.82.12-.84.15-.84.14-.87.15-.88.18-1.38.31-1.35.33-1.32.37-1.31.41-1.28.43-1.27.45-1.23.49-1.21.54-1.2.53-1.19.6-1.15.61-1.13.64-1.11.68-1.11.72-1.06.74-1.07.76-1,.82-1,.84-1,.87-1,.9-1,.94-1,1-.95,1-.92,1.05-.91,1.08-.88,1.11-.88,1.15-.87,1.2-.84,1.21-.84,1.27-.82,1.3-.82,1.33-.81,1.38-.78,1.4-.78,1.45-.76,1.48-.76,1.52-.74,1.57-.28.67-.29.68-.27.66-.27.66-.24.65-.25.66-.23.64-.22.66-.21.65-.2.66-.19.66-.18.68-.17.67-.16.7-.17.7-.14.72L296,764l-.13.74-.12.78-.12.78-.11.8-.1.82-.08.85-.08.88-.08.9-.07.93-.08,1,0,1-.06,1,0,1,0,1.1,0,1.13,0,1.18,0,1.23,0,1.25,0,1.32v4.8l0,2,.05,2,.08,1.93.08,1.89.1,1.85.15,1.81.14,1.77.19,1.72.2,1.71.21,1.64.24,1.62.27,1.61.29,1.54.31,1.52.34,1.5.35,1.44.39,1.43.42,1.4.43,1.38.45,1.33L300,822l.52,1.29.53,1.26.55,1.25.6,1.21.62,1.19.63,1.19.68,1.16.7,1.15.72,1.11.76,1.1.8,1.09.8,1.07.84,1.07.89,1,.9,1,.93,1,.8.87.82.84.82.8.82.78.83.76.84.72.84.7.84.68.84.63.89.62.86.59.88.58.91.53.9.52.93.49.92.47.95.46,1,.41,1,.41,1,.37,1,.35,1,.33,1,.3,1.06.29,1.09.27,1.09.22,1.13.23,1.13.21,1.17.18L340,855l1.2.13,1.25.12,1.25.1,1.28.09,1.31.06,1.34,0,1.35,0h1.4l1.83,0,1.79-.06,1.74-.1,1.73-.15,1.68-.2,1.65-.23,1.62-.27,1.58-.33,1.54-.37,1.52-.41,1.48-.45,1.46-.51,1.44-.54,1.4-.59,1.35-.66,1.34-.68,1.31-.74,1.28-.78,1.27-.84,1.21-.86,1.21-1,1.18-1,1.17-1,1.13-1.09,1.09-1.13,1.08-1.17,1.07-1.23,1-1.28,1-1.33,1-1.4,1-1.44.95-1.48.94-1.56.92-1.58.91-1.67.88-1.7L398,824l.84-1.81.53-1.21.52-1.33.47-1.42.43-1.52.41-1.6.39-1.71.37-1.77.33-1.85.31-1.91.26-2,.25-2,.21-2.08.18-2.09.17-2.16.14-2.18.1-2.2L404,791l.07-2.24v-4.48L404,782l-.06-2.24-.1-2.2-.12-2.18-.15-2.13-.18-2.12-.21-2.08-.22-2-.27-2-.29-1.91-.31-1.85-.35-1.77-.37-1.7-.41-1.61-.43-1.52-.45-1.41-.49-1.34-.52-1.21-.53-1.13-.56-1.13-.55-1.09-.6-1.09-.59-1.09-.62-1-.61-1-.64-1-.66-1-.66-1-.67-1-.7-.95-.7-.94-.72-.9-.72-.91-.74-.88-.74-.84-.76-.85-.76-.82-.78-.78-.78-.78-.78-.74-.8-.72-.8-.72-.83-.68L381,727l-.82-.64-.84-.6-.82-.59-.85-.54-.84-.53-.84-.49-.84-.48-.87-.45-.86-.41-.84-.39-.86-.37-.87-.33-1-.35-1-.35-1-.32-1-.31-1-.31-.94-.27-.93-.27-.92-.24-.89-.23-.88-.22-.88-.21-.87-.18-.84-.17-.84-.16-.82-.13-.83-.12-.82-.12-.8-.11-.8-.08L353,717l-.78,0-.8,0-.78,0H349ZM572.81,51.6l.2,6,.21,6.58.2,7.13.19,7.64.18,8.12.17,8.54.16,9,.17,9.33.16,9.63.14,10,.13,10.17.12,10.39L575,164.6l.13,10.73.1,10.81.08,10.89.08,10.9.09,10.89.06,10.85,0,10.79,0,10.64,0,10.48,0,10.29,0,10.05v9.78l0,9.49,0,9.12,0,8.76,0,8.32-.06,7.87-.06,7.35-.09,6.84-.1,6.27-.1,5.67-.13,5-.14,4.34-.14,3.59-.17,2.86-.16,2.07-.12.91-.13,1-.12,1-.15,1.05-.12,1.11-.14,1.13-.15,1.19-.14,1.21-.14,1.25-.15,1.3-.14,1.31-.17,1.38-.14,1.38-.16,1.41-.15,1.44-.16,1.46-.17,1.48-.16,1.52-.17,1.52-.16,1.54-.16,1.54-.15,1.59-.16,1.56-.17,1.6-.16,1.58-.17,1.6-.16,1.61-.16,1.6-.17,1.6-.14,1.6-.17,1.61-.14,1.6-.16,1.58-.15,1.56-.14,1.58-.17,1.55-.14,1.54-.14,1.52-.13,1.5-.14,1.48-.15,1.48-.16,1.47-.14,1.5-.17,1.5-.14,1.52-.17,1.53-.16,1.52-.14,1.52L567,449.8l-.16,1.52-.15,1.52-.16,1.52-.17,1.52-.14,1.5-.16,1.48-.17,1.5-.14,1.46-.17,1.45-.14,1.44-.14,1.42-.17,1.4L565,468.9l-.15,1.36-.14,1.34-.14,1.29-.15,1.27-.12,1.26-.14,1.21L564,477.8l-.12,1.15-.12,1.09-.13,1.07-.12,1-.1,1-.11.95-.1.88-.1.86-.1.78-.09.76-.1.7-.08.66-.1.68-.11.7-.08.7-.1.69-.08.7-.11.72-.08.7-.08.72-.08.72-.09.72-.08.72-.06.72-.08.71-.06.7-.09.72-.06.7-.06.7-.06.7-.06.68-.06.69,0,.66-.07.68,0,.64-.06.65,0,.62,0,.62,0,.61,0,.58,0,.57,0,.58-.05.53,0,.54,0,.49,0,.49,0,.48v.86l0,.41v1.58l0,.58v.53l0,.54,0,.49,0,.47,0,.45-.06.46-.09.43-.08.41-.08.39-.12.39-.13.37-.16.37-.17.35-.18.35-.21.35-.22.34-.25.33-.29.35-.28.33-.33.35-.35.33-.39.35-.41.35-.43.37-.48.35-.49.39-.56.39-.55.39-.62.41-.63.43-.68.45-.72.45-.76.5-.8.49-.84.51-.89.56-.92.57-.56.33-.55.33-.54.35-.51.33-.53.33-.52.33-.51.33-.49.3-.5.33-.49.33-.47.31-.45.31-.46.31-.45.3-.43.29-.43.31-.39.29-.41.27-.37.28-.37.27-.37.27-.33.24-.33.25-.31.25-.31.24-.26.23-.27.2-.25.21-.24.21-.21.18-.18.19-.19.16-.14.16-.15.15-.12.12-.1.12-.06.13-.07.1,0,.08v.06l0,.09.05.12.1.16.12.19.17.23.18.24.23.29.24.31.29.35.33.37.35.41.37.41.41.47.43.47.45.52.5.53.51.56.53.57.56.6.59.63.6.64.64.66.63.7.68.7.7.71.72.74.72.76.76.76.76.79.78.8.8.8.82.84.82.82.85.86.86.85.86.86.89.88.88.89.9.9.93.88,1.33,1.34,1.32,1.36,1.33,1.37,1.32,1.36,1.29,1.4,1.32,1.37,1.29,1.42,1.28,1.4,1.27,1.41,1.27,1.44,1.28,1.42,1.25,1.44,1.23,1.46,1.24,1.44,1.23,1.45,1.21,1.46,1.19,1.48,1.19,1.46,1.18,1.48,1.17,1.46,1.15,1.48,1.15,1.48,1.13,1.5,1.11,1.48,1.09,1.48,1.09,1.48,1.06,1.47,1.07,1.48,1,1.5,1,1.48,1,1.46,1,1.48,1,1.48.94,1.46.95,1.48.92,1.46.9,1.46.89,1.43.86,1.44.84,1.44.09.19.06.22,0,.25,0,.29-.07.3-.08.33-.14.37-.14.37-.21.39-.21.43-.24.44-.27.45-.31.45-.31.47-.32.47-.35.48-.37.49-.39.49-.39.48-.42.49-.43.49-.41.47-.43.46-.45.47-.43.43-.43.43-.46.41-.43.41-.43.37-.43.35-.41.33-.41.31-.41.27-.39.24-.37.23-.35.16-.35.15-.33.1-.29.08-.29,0-.06,0-.08,0-.08-.06-.13-.1-.12-.11-.14-.14-.17-.16-.16-.19-.21-.2-.18-.23-.23-.27-.22-.26-.25-.29-.27-.33-.26-.33-.29-.35-.29-.37-.31-.39-.31-.41-.32-.43-.33-.43-.35-.48-.35-.47-.37-.47-.37-.51-.37-.52-.37-.53-.39-.56-.41-.55-.39-.56-.41-.59-.41-.6-.42-.59-.43-.62-.41-.62-.43-.63-.43-.64-.43-.66-.43-.66-.44-.65-1.89-2.71-2-2.72-2-2.71-2-2.69-2.1-2.67-2.16-2.67-2.18-2.65-2.21-2.63-2.28-2.63-2.31-2.59-2.32-2.57-2.36-2.55-2.4-2.5-2.43-2.51-2.44-2.44-2.47-2.43-2.51-2.38-2.5-2.37-2.53-2.32-2.55-2.26-2.54-2.24-2.57-2.17L524,561.75l-2.59-2.1-2.57-2-2.59-2-2.56-2-2.59-1.86L508.48,550l-2.57-1.75-2.55-1.7-2.54-1.65-2.53-1.56-2.51-1.5-2.51-1.44L490.81,539l-2.45-1.28-2.42-1.21-2.4-1.15-2.37-1-18-7.79L442.47,541l-.87.57-.84.58-.84.57-.82.56-.83.55-.82.56-.8.53-.8.54-.8.53-.76.51-.78.5-.76.49L432,548l-.72.48-.72.45-.7.45-.68.43-.65.43-.66.41-.64.39-.61.39-.58.37-.58.35-.55.33-.53.31-.5.31-.49.29-.45.26-.45.25-.42.23-.37.2-.36.19-.33.16-.29.14-.29.13-.25.1-.2.08-.19.06-.14.05-.12,0-.09,0-.14-.05-.16,0-.19-.08-.22-.1-.25-.1-.29-.15-.31-.16-.33-.17-.34-.2-.39-.21-.42-.22-.43-.25-.45-.27-.49-.28-.5-.29-.51-.31-.55-.33-.56-.35-.57-.35-.6-.37-.62-.39-.63-.39-.64-.41-.66-.41-.68-.45-.69-.43-.7-.46-.72-.47-.72-.47-.74-.47-.74-.5-.76-.51-.76-.49-.78-.54-.78-.51-.78-.54-.78-.53-.8-.53-.81-.56-.8-.55-.78-.54-.8-.53-.78-.54-.78-.53-.76-.51-.76-.5-.74-.51-.74-.49-.74-.48-.72-.47-.7-.47-.7-.45-.67-.45-.68-.44-.66-.41-.64-.41-.61-.39-.62-.39-.57-.37-.58-.35-.55-.35-.54-.33-.51-.3-.5-.29-.47-.29-.43-.27-.43-.24-.41-.23-.37-.2-.35-.21-.33-.16-.31-.17-.26-.14-.27-.11-.21-.1-.18-.08-.17-.06-.14,0-.08,0-.11,0-.14,0-.14.06-.21.08-.2.1-.25.11-.29.14-.29.17-.32.16-.37.21-.37.2-.41.23-.42.24-.45.27-.47.29-.49.29-.52.3-.53.33-.56.35-.57.35-.58.37-.61.39-.62.39-.64.41-.65.41-.66.44-.7.45-.68.45-.72.47-.72.47-.71.48-.74.49-.76.51-.76.5-.77.51-.78.53-.78.54-.78.53-.8.54-.8.55-.8.56-.78.53-.8.53-.78.54-.78.51-.79.54-.76.49-.76.51-.74.5-.74.47-.71.47-.72.47-.7.46-.7.43-.68.45-.66.41-.65.41-.64.39-.62.39-.59.37-.58.35-.57.35-.54.33-.53.31-.51.29-.48.28-.47.27-.43.25-.43.22-.39.21-.37.2-.35.17-.31.16-.29.15-.27.1-.24.1-.21.08-.16,0-.15.05-.12,0-.12,0-.15-.05-.16,0-.21-.08-.24-.1-.27-.1-.29-.15-.31-.16-.34-.17-.37-.2-.39-.21-.44-.22-.43-.25-.47-.27-.47-.28-.52-.29-.53-.31-.53-.33-.58-.35-.58-.35-.59-.37-.62-.39-.63-.39-.66-.41-.66-.41-.68-.45-.7-.43-.69-.46-.72-.47-.72-.47-.74-.47-.74-.5-.76-.51-.76-.49-.78-.54-.78-.51-.78-.54-.81-.53-.78-.53-.8-.56-.8-.55-.8-.54-.78-.53-.78-.54-.78-.53-.76-.51-.76-.5-.76-.51-.74-.49-.72-.48-.72-.47-.72-.47-.68-.45-.7-.45-.65-.44-.66-.41-.64-.41-.61-.39-.62-.39-.58-.37-.57-.35-.56-.35-.53-.33-.51-.3-.5-.29-.47-.29-.45-.27-.41-.24-.41-.23-.37-.2-.37-.21-.33-.16-.29-.17-.29-.14-.24-.11-.21-.1-.2-.08-.15-.06-.14,0-.1,0-.09,0-.14,0-.17.06-.18.08-.21.1-.26.11-.27.14-.31.17-.33.16-.35.21-.37.2-.41.23-.41.24-.45.27-.47.29-.5.29-.51.3-.53.33-.56.35-.57.35-.58.37-.61.39-.62.39-.64.41-.66.41-.67.44-.68.45-.7.45-.7.47-.72.47-.74.48-.74.49-.74.51-.76.5-.76.51-.78.53-.78.54-.8.53-.78.54-.8.55-.8.56-.8.53-.78.53-.79.54-.78.51-.78.54-.76.49-.76.51-.74.5-.74.47-.72.47-.71.47-.7.46-.7.43-.68.45-.66.41-.65.41-.64.39-.62.39-.59.37-.6.35-.55.35-.56.33-.51.31-.52.29-.49.28-.45.27-.45.25L250,554l-.4.21-.36.2-.35.17-.31.16-.29.15-.27.1-.24.1-.21.08-.16,0-.17.05-.1,0-.21,0-.3-.09-.37-.16-.46-.21-.53-.26-.6-.31-.67-.37-.72-.41-.78-.45-.85-.5-.88-.53-.92-.56-1-.61-1-.62-1-.66-1.07-.7-1.11-.69-1.13-.74-1.13-.74-1.17-.76-1.17-.78-1.18-.78-1.17-.79-1.17-.8-1.17-.8-1.17-.78-1.15-.8-1.13-.78-1.11-.78-1.09-.78-1.05-.76-1-.74-1-.72-.95-.7-.9-.68-.84-.66-.8-.61-.74-.6-.68-.55-.62-.52-.39-.32-.37-.31-.39-.27-.39-.27-.39-.24-.39-.23-.39-.18-.41-.19-.41-.16-.43-.13-.43-.12-.46-.08-.45-.06-.49-.07-.49,0h-.52l-.55,0-.56.05-.57.08L202,529l-.64.12-.65.15-.7.16-.72.19-.76.2-.78.25-.82.27-.87.28-.88.31-1,.33-1,.37-1,.39-1.07.41-1.11.45-1.15.48-1.19.49-1.25.51-1.32.56-1.35.57-1.4.6-2,.9-2,.93-2,1-2,1-2,1.05-2,1.11-2,1.13-2,1.17-2,1.21-2,1.27-2,1.3-2,1.33-2,1.4-2,1.42-2,1.46-2,1.52-2,1.54-2,1.6-2,1.62-2,1.69-2,1.72-2,1.75-2,1.81-2,1.85-2,1.89-2,1.93-2,2-2,2-2,2.06-2,2.09-2,2.16-2,2.18-2,2.24-2,2.26-2,2.32-2.06,2.36-2,2.39-2.06,2.44-2,2.51-2.06,2.53-.59.74-.58.74-.59.73-.58.74-.57.74-.58.74-.59.76-.56.74-.57.74-.58.74-.55.74-.56.72-.55.74-.54.72-.53.7-.54.72-.51.7-.51.67-.5.68-.49.68-.47.66-.47.63-.46.64-.45.62-.41.61-.43.58-.39.57-.39.56-.37.55-.35.52-.35.49-.31.49L85,626l-.28.45-.27.41-.25.41-.22.37-.21.35-.18.31-.15.31-3.57,6.88-6.45-4-.27-.16-.27-.15-.24-.16-.27-.16-.27-.17-.27-.16-.24-.17-.25-.16-.27-.19-.24-.16-.25-.17-.23-.18-.24-.16-.25-.19-.22-.18-.23-.17-.23-.18-.2-.17-.21-.18-.22-.19-.19-.16-.2-.19-.19-.16-.18-.17-.19-.18-.16-.17-.17-.16-.16-.16-.15-.15-.14-.16-.14-.17-.13-.14L66.4,626l-.1-.15-.1-.14-.09-.15-.08-.12-.08-.14-.06-.13-.06-.1-.13-.59v-.72l.15-.87.26-1,.39-1.11.52-1.21.63-1.34.74-1.44.85-1.52.94-1.62,1-1.71,1.13-1.76,1.21-1.85,1.29-1.93,1.38-2,1.44-2,1.52-2.08,1.58-2.11,1.63-2.18,1.68-2.18,1.73-2.22,1.78-2.22,1.81-2.26L91.24,585l1.89-2.26L95,580.45,97,578.21l2-2.2,2-2.2,2-2.16,2-2.13,1.95-2.08,2-2,1.93-2,1.94-1.91,1.89-1.85,1.87-1.78,1.82-1.71,1.79-1.62,1.77-1.54.47-.41.49-.41.48-.42.45-.41.47-.41.45-.39.45-.41.44-.39.43-.39.43-.39.41-.37.41-.37.41-.37.39-.37.37-.35.39-.35.35-.35.35-.33.35-.32.33-.31.31-.31.31-.31.28-.29.27-.28.27-.27.24-.27.25-.25.21-.22.2-.23.19-.22.18-.19.14-.2.15-.17.12-.16.1-.15.09-.14.08-.12,0-.11,0-.08,0-.08,0-.06,0-.1-.06-.11-.06-.1-.11-.12-.12-.15-.12-.14-.15-.17-.18-.18-.19-.19-.2-.2-.23-.21-.22-.2-.27-.23-.27-.24-.29-.25-.3-.25-.31-.26L130,538l-.35-.29-.35-.29-.37-.28-.39-.31-.41-.31-.41-.31-.43-.33-.43-.33-.44-.32-.47-.33-.45-.35-.49-.33-.48-.35-.51-.37-.49-.35-.52-.35-.51-.37-.53-.35-.54-.37-.53-.37-.56-.37-12.9-8.89-2.67-28.48-.23-2.61-.24-2.59-.23-2.55-.23-2.52-.22-2.49-.25-2.46-.22-2.45-.23-2.4-.23-2.39-.22-2.34-.23-2.34-.24-2.3-.23-2.28-.23-2.26-.22-2.24-.23-2.22-.25-2.2-.22-2.18-.23-2.15-.24-2.16-.23-2.14-.23-2.11-.24-2.1-.25-2.1L99,436l-.25-2.08-.23-2.05-.24-2.06-.25-2-.25-2-.24-2-.25-2-.25-2-.26-2-.25-2-.27-2-.24-2-.27-2-.27-2-.27-2L95,404.31,94.88,403l-.17-1.5-.14-1.62-.12-1.79-.15-1.95L94.18,394l-.13-2.26-.1-2.43-.1-2.61-.1-2.77-.11-3-.1-3.12-.08-3.33L93.38,371l-.06-3.7-.09-3.91-.06-4.09L93.11,355l-.06-4.52,0-4.73L93,340.82l0-5.15,0-5.39,0-5.63,0-5.83,0-6.1,0-6.33,0-6.56,0-6.82V286l0-7.32V238.05l0-8.93,0-9.21V210.4l0-4.79,0-4.78V196l0-4.79,0-4.76,0-4.75,0-4.75,0-4.74,0-4.73,0-4.72,0-4.73,0-4.7,0-4.71,0-4.68,0-4.69,0-4.66,0-4.67,0-4.64.07-4.66,0-4.63.06-4.64,0-4.6.06-4.62.06-4.61,0-4.58.07-4.6.06-4.56.08-4.58.06-4.56L94,70.14,94,65.6l.07-4.55.08-4.52L94.24,52l.08-4.49L94.4,43l.09-4.5L94.57,34l.08-4.48.1-4.46,1.34-10.46H571l1.56,31.6ZM138.66,41.35h-.51l-.52,0h-.49l-.49,0-.5,0-.49,0-.47,0-.48,0-.47,0-.45,0-.45,0-.43,0-.43,0-.44,0-.41,0-.41.06-.39,0-.37,0-.37.06-.37,0-.35.06-.33.06-.3.06-.31,0-.29.07-.27.06-.26.06-.25.06-.23.06-.2.06-.21.07-.16.08-.17.06-.14.06-.12.06L126,43l-.08.09-.06.06-.18.35-.19.43-.16.55-.19.64-.16.74-.17.86-.14,1-.17,1.07-.16,1.19-.14,1.31-.15,1.42L124,54.21l-.15,1.69-.14,1.81-.14,1.93-.15,2.09L123.23,64l-.12,2.34L123,68.8l-.12,2.65-.14,2.8-.13,3-.14,3.11-.13,3.26L122.18,87,122,90.6l-.13,3.76-.14,3.92-.12,4.09-.15,4.28-.12,4.45-.14,4.65-.13,4.8-.14,5-.14,5.2-.15,5.38-.12,5.59-.15,5.77-.16,6-.14,6.18-.15,6.48-.12,6.47-.12,6.47-.11,6.47-.08,6.45-.08,6.45-.06,6.46-.06,6.43,0,6.41,0,6.39v19.08l0,6.31,0,6.29.06,6.24.06,6.23.08,6.2.08,6.17.11,6.1.12,6.1.12,6,.15,6,.14,5.94.16,5.92.19,5.85.18,5.81.21,5.76.21,5.69.22,5.65.25,5.59.24,5.5.27,5.47.27,5.4.29,5.32.28,5.26.31,5.18.33,5.12.33,5.05.35,4.95.33,4.56.33,4.48.3,4.36.33,4.27.29,4.15.31,4.05.29,4,.31,3.85.26,3.74.29,3.63.27,3.54.26,3.43.25,3.33.25,3.2.24,3.12.25,3,.23,2.9.22,2.79.23,2.7.2,2.58.21,2.47.2,2.36.19,2.26.18,2.16.19,2.05.16,1.94.17,1.82.16,1.73.15,1.6.14,1.5.14,1.4.13,1.29.12,1.17.1,1.07.13,1,.1.84.08.74.08.62.09.51.06.41.12.45.21.48.26.51.33.55.41.6.45.62.52.63.57.68.62.7.66.72.7.72.76.74.78.76.82.76.84.78.86.78.91.76.92.78.93.76.94.76,1,.76.94.74,1,.72,1,.7.95.68.94.65.93.62.92.62.89.55.88.54.84.49.82.45.78.41.76.37.72.33.66.25.64.22.55.15.54.1.45,0h.16l.19,0,.2,0,.25,0,.25-.06.26-.09.31-.1.31-.1.33-.1.35-.15.37-.14.39-.15.41-.16.43-.19.43-.18.45-.19.48-.22.47-.21.49-.22.52-.25.51-.25.53-.24.54-.27.55-.27.56-.28.57-.29.58-.29.59-.31.6-.31.6-.32.59-.31.62-.33.61-.33.64-.35.62-.35.63-.35.62-.35.64-.35.63-.37.64-.37.64-.35.61-.37.64-.34.64-.37.64-.35.61-.33.64-.35.62-.33.61-.33.62-.33.61-.31.6-.3.6-.31.59-.29.58-.29.57-.29.56-.26.55-.27.54-.27.53-.24.53-.23.5-.23.49-.22.49-.21.48-.2.45-.19.43-.16.41-.17.41-.16.39-.14.37-.13.35-.12.33-.1.31-.09.29-.08.26-.06.25-.06.23,0,.2,0,.19,0h.18l.21,0,.26,0,.29.06.33.06.35.1.39.11.41.12.45.16.47.15.52.18.53.21.56.2.57.23.62.25.64.24.65.27.68.29.7.31.72.3.74.33.76.33.78.35.78.35.82.37.82.39.85.39.84.39.86.41.88.41.89.43.9.44.91.45.92.43.93.45.92.47.94.48.95.47.95.47.94.47,22.68,11.8,23.14-12.23L295.63,503l37.82,25.8,21.8-10.89,1.81-.9,1.68-.84,1.61-.82,1.5-.74,1.41-.72,1.34-.68,1.27-.62,1.19-.57,1.15-.52,1.09-.47,1-.43,1-.39,1-.33.93-.29.9-.24.88-.19.89-.14.86-.08.88-.05h.89l.88.07.91.1.94.16,1,.21,1,.27,1.05.3,1.11.37,1.15.41,1.23.48,1.3.51,1.35.58,1.44.61,1.54.68,1.63.74,1.72.78,1.85.84,1.93.91,2.08.94,2.17,1,2.33,1.05,14.69,6.67,18-12.24,18.25-12,10,3.1.42.15.45.14.45.14.45.15.47.14.5.15.49.16.51.16.52.17.51.16.54.17.53.16.53.17.56.16.55.19.56.16.55.18.58.17.55.18.58.17.55.18.58.17.55.18.58.17.57.18.56.17.55.16.56.19.55.16.54.16.55.17.54.16.51.15.51.16.52.15.49.16.49.14.5.15.45.14.47.12.43.15.43.12.46.12.45.15.45.12.47.12.45.13.46.12.47.12.47.13.45.12.48.1.45.13.47.1.45.12.47.11.46.1.45.1.45.08.45.11.43.08.44.08.43.08.41.09.43.08.39.08.41.06.39.06.37.06.37,0,.37.06.35,0,.33,0,.33,0,.31,0,.3,0,.29,0,.27,0h.24l.25,0,.47,0,.54-.06.59-.08.64-.12.66-.15.72-.16.76-.21.8-.22.82-.25.84-.29.89-.29.9-.32.92-.33.93-.35.94-.37,1-.37,1-.41,1-.39,1-.41,1-.44.95-.43.94-.43.93-.43.92-.45.91-.43.86-.44.84-.45.82-.43.8-.43.74-.41.72-.43.66-.39.64-.41.57-.37.52-.37.47-.35.41-.35.35-.31.29-.31.22-.27.06-.12.05-.18.08-.23.06-.29.08-.31.06-.39.11-.41.08-.45.08-.51.1-.56.11-.57.1-.64.1-.68.12-.7.11-.74.12-.78.12-.82.13-.84.12-.88.12-.91.15-.94.12-1,.14-1,.13-1,.14-1.05.15-1.07.12-1.09.14-1.13.15-1.13.14-1.17.14-1.17.15-1.21.12-1.21.14-1.22.15-1.25.14-1.25.15-1.28.12-1.27.14-1.3.13-1.29.14-1.31.14-1.36.13-1.36.14-1.37.15-1.38.14-1.38.14-1.39.15-1.42.16-1.4.14-1.42.15-1.41.14-1.42.17-1.4.14-1.42.14-1.39.17-1.4.14-1.4.15-1.37.14-1.36.16-1.36.15-1.35.14-1.32.15-1.31.12-1.27.14-1.28.15-1.23.12-1.21.14-1.22.13-1.15.12-1.15.12-1.09.13-1.08.1-1,.12-1,.11-1,.1-.93.1-.88.1-.87.09-.8.08-.76.16-1.48.17-1.87.18-2.21.19-2.57.2-2.88.21-3.16.22-3.45.23-3.7.23-3.95L547,389l.25-4.37.25-4.57.24-4.72.25-4.87.27-5,.24-5.1.25-5.18.27-5.26.24-5.32.25-5.34.25-5.36.22-5.34.25-5.32.22-5.28.23-5.22.21-5.14.2-5,.19-4.91.18-4.79.19-4.6.14-4.44.14-4.25.15-4,.12-3.8.1-3.56.09-3.26.06-3,0-2.69,0-2.35v-3.84l0-1.07,0-1.15,0-1.25,0-1.36,0-1.45-.07-1.59-.06-1.72-.06-1.83-.08-2-.08-2.12-.09-2.28-.1-2.45-.12-2.58-.13-2.78-.12-2.94-.14-3.12-.17-3.31-.16-3.51-.19-3.7-.18-3.92-.21-4.13-.2-4.36-.23-4.58-.22-4.81-.25-5.05-.27-5.3-.29-5.55-.28-5.81-.31-6.08-.31-6.33-.33-6.64-.35-6.9-.37-7.19-.37-7.5-.41-7.81-.39-8.09-.43-8.43L545,93.62l-.1-1.83L544.8,90l-.1-1.8-.1-1.77-.11-1.77-.1-1.72-.12-1.71-.1-1.71-.11-1.64-.12-1.64-.1-1.61L543.71,73l-.1-1.54-.12-1.5-.1-1.48-.13-1.44-.1-1.39L543,64.32,542.93,63l-.12-1.3-.1-1.23-.13-1.17-.1-1.15-.1-1.09-.12-1-.11-1-.1-.95-.1-.88-.13-.83-.1-.78-.1-.72-.1-.65-.09-.58-.1-.53-.1-.47-.08-.39-.11-.33-.08-.27-.08-.19-.08-.12-.25-.08-.58-.1-.88-.09L537.92,47l-1.48-.1-1.79-.1-2-.09-2.34-.1-2.61-.1-2.9-.1-3.14-.11-3.39-.1-3.66-.1-3.88-.1-4.13-.11-4.36-.12-4.58-.1-4.79-.11-5-.1-5.2-.12-5.4-.11-5.59-.1L465.85,45l-6-.1-6.12-.11-6.31-.1L441,44.6l-6.6-.1-6.74-.13-6.88-.1-7-.08-7.15-.11-7.25-.1-7.37-.1-7.5-.1-7.58-.09-7.69-.1-7.77-.08-7.84-.08-7.91-.09-7.95-.06-7.89-.08L322,43.14l-7.77-.06L306.58,43,299,42.93l-7.5-.06-7.4-.06-7.31-.06-7.17-.06-7.07-.06-7-.07-6.82-.06-6.65-.06-6.54-.06-6.37-.06-6.2-.06L217,42.19l-5.88,0-5.69-.06L199.88,42l-5.3,0-5.11-.06-4.91,0-4.71,0-4.46-.06-4.25,0-4,0-3.79,0-3.53,0-3.27,0-3,0-2.75,0-2.46,0-2.18,0-1.89,0-1.6,0-1.32,0-1,0-.67,0h-.52Zm115,387.49.41.08.45.13.52.14.55.18.62.21.66.23.72.26.78.27.82.31.86.33,1,.33,1.07.37,1.15.37,1.23.39,1.31.41,1.4.41,1.46.43,1.52.43,1.58.45,1.65.45,1.68.48,1.73.47,1.78.47,1.81.47,1.85.5,1.89.47,1.89.47,1.93.5,1.93.47,1.93.47,2,.47,1.95.46,1.95.47,1.93.43,1.93.45,1.91.43,1.87.41,1.87.41,1.83.4,1.79.37,1.75.34,1.7.35,1.66.33,1.11.23,1.09.22,1.07.19,1.05.2,1,.17,1,.18,1,.15.94.14.93.12.9.13.91.1.86.1.86.09.84.06.85.06.82,0,.82,0,.82,0,.8,0h.8l.81,0,.8,0,.8,0,.78,0,.82-.06.8-.06.8-.09.82-.08.85-.1.84-.12.84-.11.86-.14.89-.14.88-.15,1.56-.29,1.59-.28,1.58-.29,1.6-.31,1.6-.33,1.63-.33,1.64-.33,1.64-.34,1.65-.35,1.66-.37,1.64-.37,1.67-.37,1.68-.39,1.67-.39,1.66-.39,1.69-.42,1.66-.41,1.66-.41,1.67-.41,1.66-.43,1.65-.43,1.64-.43,1.64-.45,1.65-.44,1.6-.45,1.62-.45,1.59-.45,1.6-.45,1.56-.48,1.56-.45,1.54-.47,1.52-.47,1.5-.48,1.48-.47.66-.18.66-.19.65-.18.64-.19.64-.18.61-.17.62-.18.62-.17.57-.14.6-.17.55-.14.56-.14.53-.15.51-.12.52-.12.49-.13.47-.1.46-.12.43-.08.41-.11.39-.08.37-.06.35-.08.33,0,.28-.07.29,0,.25,0,.22,0h.21l.16,0,.15,0h.12l.08,0,.07,0,0,.15-.11.26-.22.35-.35.43-.47.54-.58.59-.68.68-.78.74-.86.82-.95.85-1,.92-1.09.95-1.15,1-1.19,1-1.24,1-1.29,1.07-1.3,1.06-1.33,1.09-1.34,1.09L398.09,445l-1.36,1.07-1.35,1.05-1.34,1-1.31,1-1.28,1-1.25.92-1.19.86-1.15.82-1.11.76-1,.7-1,.64-.86.56-.8.47-.7.37-.74.39-.78.41-.8.39-.82.39-.87.39-.9.39-.92.41-.93.39-1,.39-1,.39-1,.39-1,.39-1.06.39-1.09.37-1.11.39-1.13.37-1.13.37-1.17.37-1.17.37-1.2.37-1.21.35-1.23.37-1.23.35-1.26.35-1.27.33-1.27.33-1.28.33-1.29.33-1.32.3-1.31.31-1.32.31-1.31.29-1.34.28-1.33.29-.91.19-.88.18-.84.17-.83.14-.82.14-.78.15-.76.1-.76.12-.74.09-.74.08-.72.06-.74.06-.69,0-.72,0-.74,0h-1.44l-.76,0-.74,0-.76,0-.8-.08-.8-.08-.83-.11-.84-.1-.86-.12-.91-.15-.92-.16-1-.16-1-.19-1-.21-1.07-.22L318,468.1l-1.15-.26-1.21-.27-2-.45-2-.5-1.95-.49-1.91-.53-1.91-.56-1.87-.57-1.87-.58-1.83-.62-1.81-.63-1.78-.66-1.77-.7-1.73-.7-1.72-.72-1.69-.74-1.66-.76-1.64-.8-1.63-.8-1.58-.82-1.58-.86-1.54-.87-1.5-.9-1.5-.9-1.46-1-1.44-1-1.42-1-1.39-1-1.36-1-1.33-1-1.32-1.07-1.27-1.09L265,443.2l-1.23-1.11-1.19-1.15-1.17-1.17-1-1-.94-1-.87-.91-.82-.86-.76-.8-.7-.76-.63-.7-.6-.66-.53-.59-.48-.54-.41-.51-.35-.45-.3-.41-.25-.37-.19-.31-.14-.29-.08-.23,0-.2,0-.14.08-.13.14-.08.19,0,.25,0,.28,0Zm206.3-146.26,2.61.72,2.55,1,2.46,1.19,2.36,1.44,2.29,1.67,2.13,1.87,2,2.09,1.84,2.3,1.69,2.53,1.52,2.71.82,1.85.68,1.85.55,1.83.42,1.83.26,1.8.15,1.81,0,1.81-.15,1.79-.26,1.79-.39,1.76L483,320l-.68,1.77-.82,1.74-.94,1.75-1.07,1.72-1.21,1.73-1.36,1.73-1.5,1.7-1.52,1.54-1.62,1.4-1.71,1.27-1.79,1.13-1.85,1-1.91.86-2,.74-2,.6-2.06.43-2.07.31-2.1.18h-2.13l-2.12-.12-2.14-.27-2.11-.43-2.12-.57-2.07-.74-2.06-.89-1.48-.78-1.48-.94-1.42-1.09-1.41-1.21-1.36-1.32-1.31-1.44-1.26-1.52-1.19-1.6L428,327l-1-1.71-.94-1.75-.84-1.76-.74-1.79-.62-1.77-.51-1.74-.35-1.75-.23-1.66-.08-1.65.06-1.46.21-1.52.31-1.54.45-1.56.53-1.58.66-1.58.76-1.56.84-1.59.93-1.54,1-1.5,1.09-1.48,1.15-1.41,1.21-1.38,1.28-1.3,1.31-1.23,1.38-1.13,1.4-1.05,1.44-.94,2.54-1.38,2.61-1.11,2.67-.82,2.67-.55,2.72-.29,2.69,0,2.69.22Zm-239,.22,3,1,2.92,1.25,2.77,1.54,2.57,1.83,2.39,2.06,2.11,2.3,1.83,2.5,1.54,2.72,1.19,2.89.8,3.06.4,3.25.14,2.16.08,2,0,1.85v1.68l-.06,1.57-.12,1.45-.19,1.36-.26,1.29-.31,1.22-.41,1.15-.48,1.13-.57,1.13-.66,1.11-.74,1.11-.84,1.15-1,1.19-1,1.25-1.18,1.34-1.13,1.23-1,1.11-1,1-.92.88-.89.74-.86.66-.86.57-.89.47-.92.41-.95.31-1,.27-1.11.21-1.24.16-1.35.1-1.48.06-1.64,0-1.81,0-2,0-1.89,0-1.7,0-1.58-.07-1.42-.08-1.32-.1-1.19-.17-1.11-.18-1.05-.25-1-.28-.9-.35-.89-.39-.84-.48-.84-.51-.85-.62-.86-.65-.9-.76-.95-.83-1-.92-1.32-1.38L191,331.08l-1.15-1.5L188.75,328l-1-1.6-.86-1.62-.78-1.67-.68-1.7-.55-1.73-.48-1.74-.37-1.75-.24-1.77-.15-1.76,0-1.75.09-1.75.18-1.74.31-1.71.41-1.68.41-1.44.45-1.36.45-1.29.5-1.21.53-1.15.58-1.11.61-1.05.66-1,.7-1,.78-.95.84-.9.89-.87,1-.88,1.05-.84,1.13-.86,1.21-.87,1.3-.86,1.39-.88,3-1.52L205.1,283l3.15-.76,3.18-.35,3.19,0,3.18.33Z" transform="translate(345.34 -14.14)"/></svg>